%TF.GenerationSoftware,KiCad,Pcbnew,9.0.7-1.fc43app1*%
%TF.CreationDate,2026-04-10T14:22:11+02:00*%
%TF.ProjectId,rak4630_interface,72616b34-3633-4305-9f69-6e7465726661,rev?*%
%TF.SameCoordinates,Original*%
%TF.FileFunction,Legend,Top*%
%TF.FilePolarity,Positive*%
%FSLAX46Y46*%
G04 Gerber Fmt 4.6, Leading zero omitted, Abs format (unit mm)*
G04 Created by KiCad (PCBNEW 9.0.7-1.fc43app1) date 2026-04-10 14:22:11*
%MOMM*%
%LPD*%
G01*
G04 APERTURE LIST*
%ADD10C,0.150000*%
%ADD11C,0.254000*%
%ADD12C,0.120000*%
%ADD13C,0.100000*%
%ADD14C,0.200000*%
G04 APERTURE END LIST*
D10*
X127615333Y-74819019D02*
X127282000Y-74342828D01*
X127043905Y-74819019D02*
X127043905Y-73819019D01*
X127043905Y-73819019D02*
X127424857Y-73819019D01*
X127424857Y-73819019D02*
X127520095Y-73866638D01*
X127520095Y-73866638D02*
X127567714Y-73914257D01*
X127567714Y-73914257D02*
X127615333Y-74009495D01*
X127615333Y-74009495D02*
X127615333Y-74152352D01*
X127615333Y-74152352D02*
X127567714Y-74247590D01*
X127567714Y-74247590D02*
X127520095Y-74295209D01*
X127520095Y-74295209D02*
X127424857Y-74342828D01*
X127424857Y-74342828D02*
X127043905Y-74342828D01*
X128472476Y-74152352D02*
X128472476Y-74819019D01*
X128234381Y-73771400D02*
X127996286Y-74485685D01*
X127996286Y-74485685D02*
X128615333Y-74485685D01*
X131639666Y-81464419D02*
X131639666Y-82178704D01*
X131639666Y-82178704D02*
X131592047Y-82321561D01*
X131592047Y-82321561D02*
X131496809Y-82416800D01*
X131496809Y-82416800D02*
X131353952Y-82464419D01*
X131353952Y-82464419D02*
X131258714Y-82464419D01*
X132639666Y-82464419D02*
X132068238Y-82464419D01*
X132353952Y-82464419D02*
X132353952Y-81464419D01*
X132353952Y-81464419D02*
X132258714Y-81607276D01*
X132258714Y-81607276D02*
X132163476Y-81702514D01*
X132163476Y-81702514D02*
X132068238Y-81750133D01*
X137863095Y-75429819D02*
X137863095Y-76239342D01*
X137863095Y-76239342D02*
X137910714Y-76334580D01*
X137910714Y-76334580D02*
X137958333Y-76382200D01*
X137958333Y-76382200D02*
X138053571Y-76429819D01*
X138053571Y-76429819D02*
X138244047Y-76429819D01*
X138244047Y-76429819D02*
X138339285Y-76382200D01*
X138339285Y-76382200D02*
X138386904Y-76334580D01*
X138386904Y-76334580D02*
X138434523Y-76239342D01*
X138434523Y-76239342D02*
X138434523Y-75429819D01*
X139434523Y-76429819D02*
X138863095Y-76429819D01*
X139148809Y-76429819D02*
X139148809Y-75429819D01*
X139148809Y-75429819D02*
X139053571Y-75572676D01*
X139053571Y-75572676D02*
X138958333Y-75667914D01*
X138958333Y-75667914D02*
X138863095Y-75715533D01*
X140833333Y-75154819D02*
X140500000Y-74678628D01*
X140261905Y-75154819D02*
X140261905Y-74154819D01*
X140261905Y-74154819D02*
X140642857Y-74154819D01*
X140642857Y-74154819D02*
X140738095Y-74202438D01*
X140738095Y-74202438D02*
X140785714Y-74250057D01*
X140785714Y-74250057D02*
X140833333Y-74345295D01*
X140833333Y-74345295D02*
X140833333Y-74488152D01*
X140833333Y-74488152D02*
X140785714Y-74583390D01*
X140785714Y-74583390D02*
X140738095Y-74631009D01*
X140738095Y-74631009D02*
X140642857Y-74678628D01*
X140642857Y-74678628D02*
X140261905Y-74678628D01*
X141166667Y-74154819D02*
X141785714Y-74154819D01*
X141785714Y-74154819D02*
X141452381Y-74535771D01*
X141452381Y-74535771D02*
X141595238Y-74535771D01*
X141595238Y-74535771D02*
X141690476Y-74583390D01*
X141690476Y-74583390D02*
X141738095Y-74631009D01*
X141738095Y-74631009D02*
X141785714Y-74726247D01*
X141785714Y-74726247D02*
X141785714Y-74964342D01*
X141785714Y-74964342D02*
X141738095Y-75059580D01*
X141738095Y-75059580D02*
X141690476Y-75107200D01*
X141690476Y-75107200D02*
X141595238Y-75154819D01*
X141595238Y-75154819D02*
X141309524Y-75154819D01*
X141309524Y-75154819D02*
X141214286Y-75107200D01*
X141214286Y-75107200D02*
X141166667Y-75059580D01*
X144871666Y-68789819D02*
X144871666Y-69504104D01*
X144871666Y-69504104D02*
X144824047Y-69646961D01*
X144824047Y-69646961D02*
X144728809Y-69742200D01*
X144728809Y-69742200D02*
X144585952Y-69789819D01*
X144585952Y-69789819D02*
X144490714Y-69789819D01*
X145252619Y-68789819D02*
X145871666Y-68789819D01*
X145871666Y-68789819D02*
X145538333Y-69170771D01*
X145538333Y-69170771D02*
X145681190Y-69170771D01*
X145681190Y-69170771D02*
X145776428Y-69218390D01*
X145776428Y-69218390D02*
X145824047Y-69266009D01*
X145824047Y-69266009D02*
X145871666Y-69361247D01*
X145871666Y-69361247D02*
X145871666Y-69599342D01*
X145871666Y-69599342D02*
X145824047Y-69694580D01*
X145824047Y-69694580D02*
X145776428Y-69742200D01*
X145776428Y-69742200D02*
X145681190Y-69789819D01*
X145681190Y-69789819D02*
X145395476Y-69789819D01*
X145395476Y-69789819D02*
X145300238Y-69742200D01*
X145300238Y-69742200D02*
X145252619Y-69694580D01*
X139291666Y-90154819D02*
X139291666Y-90869104D01*
X139291666Y-90869104D02*
X139244047Y-91011961D01*
X139244047Y-91011961D02*
X139148809Y-91107200D01*
X139148809Y-91107200D02*
X139005952Y-91154819D01*
X139005952Y-91154819D02*
X138910714Y-91154819D01*
X139767857Y-91154819D02*
X139767857Y-90154819D01*
X139767857Y-90154819D02*
X140148809Y-90154819D01*
X140148809Y-90154819D02*
X140244047Y-90202438D01*
X140244047Y-90202438D02*
X140291666Y-90250057D01*
X140291666Y-90250057D02*
X140339285Y-90345295D01*
X140339285Y-90345295D02*
X140339285Y-90488152D01*
X140339285Y-90488152D02*
X140291666Y-90583390D01*
X140291666Y-90583390D02*
X140244047Y-90631009D01*
X140244047Y-90631009D02*
X140148809Y-90678628D01*
X140148809Y-90678628D02*
X139767857Y-90678628D01*
X141291666Y-91154819D02*
X140720238Y-91154819D01*
X141005952Y-91154819D02*
X141005952Y-90154819D01*
X141005952Y-90154819D02*
X140910714Y-90297676D01*
X140910714Y-90297676D02*
X140815476Y-90392914D01*
X140815476Y-90392914D02*
X140720238Y-90440533D01*
X127691533Y-90160619D02*
X127358200Y-89684428D01*
X127120105Y-90160619D02*
X127120105Y-89160619D01*
X127120105Y-89160619D02*
X127501057Y-89160619D01*
X127501057Y-89160619D02*
X127596295Y-89208238D01*
X127596295Y-89208238D02*
X127643914Y-89255857D01*
X127643914Y-89255857D02*
X127691533Y-89351095D01*
X127691533Y-89351095D02*
X127691533Y-89493952D01*
X127691533Y-89493952D02*
X127643914Y-89589190D01*
X127643914Y-89589190D02*
X127596295Y-89636809D01*
X127596295Y-89636809D02*
X127501057Y-89684428D01*
X127501057Y-89684428D02*
X127120105Y-89684428D01*
X128643914Y-90160619D02*
X128072486Y-90160619D01*
X128358200Y-90160619D02*
X128358200Y-89160619D01*
X128358200Y-89160619D02*
X128262962Y-89303476D01*
X128262962Y-89303476D02*
X128167724Y-89398714D01*
X128167724Y-89398714D02*
X128072486Y-89446333D01*
X134283333Y-83079819D02*
X133807143Y-83079819D01*
X133807143Y-83079819D02*
X133807143Y-82079819D01*
X135140476Y-83079819D02*
X134569048Y-83079819D01*
X134854762Y-83079819D02*
X134854762Y-82079819D01*
X134854762Y-82079819D02*
X134759524Y-82222676D01*
X134759524Y-82222676D02*
X134664286Y-82317914D01*
X134664286Y-82317914D02*
X134569048Y-82365533D01*
X131733333Y-74939580D02*
X131685714Y-74987200D01*
X131685714Y-74987200D02*
X131542857Y-75034819D01*
X131542857Y-75034819D02*
X131447619Y-75034819D01*
X131447619Y-75034819D02*
X131304762Y-74987200D01*
X131304762Y-74987200D02*
X131209524Y-74891961D01*
X131209524Y-74891961D02*
X131161905Y-74796723D01*
X131161905Y-74796723D02*
X131114286Y-74606247D01*
X131114286Y-74606247D02*
X131114286Y-74463390D01*
X131114286Y-74463390D02*
X131161905Y-74272914D01*
X131161905Y-74272914D02*
X131209524Y-74177676D01*
X131209524Y-74177676D02*
X131304762Y-74082438D01*
X131304762Y-74082438D02*
X131447619Y-74034819D01*
X131447619Y-74034819D02*
X131542857Y-74034819D01*
X131542857Y-74034819D02*
X131685714Y-74082438D01*
X131685714Y-74082438D02*
X131733333Y-74130057D01*
X132114286Y-74130057D02*
X132161905Y-74082438D01*
X132161905Y-74082438D02*
X132257143Y-74034819D01*
X132257143Y-74034819D02*
X132495238Y-74034819D01*
X132495238Y-74034819D02*
X132590476Y-74082438D01*
X132590476Y-74082438D02*
X132638095Y-74130057D01*
X132638095Y-74130057D02*
X132685714Y-74225295D01*
X132685714Y-74225295D02*
X132685714Y-74320533D01*
X132685714Y-74320533D02*
X132638095Y-74463390D01*
X132638095Y-74463390D02*
X132066667Y-75034819D01*
X132066667Y-75034819D02*
X132685714Y-75034819D01*
X168816667Y-77757200D02*
X168959524Y-77804819D01*
X168959524Y-77804819D02*
X169197619Y-77804819D01*
X169197619Y-77804819D02*
X169292857Y-77757200D01*
X169292857Y-77757200D02*
X169340476Y-77709580D01*
X169340476Y-77709580D02*
X169388095Y-77614342D01*
X169388095Y-77614342D02*
X169388095Y-77519104D01*
X169388095Y-77519104D02*
X169340476Y-77423866D01*
X169340476Y-77423866D02*
X169292857Y-77376247D01*
X169292857Y-77376247D02*
X169197619Y-77328628D01*
X169197619Y-77328628D02*
X169007143Y-77281009D01*
X169007143Y-77281009D02*
X168911905Y-77233390D01*
X168911905Y-77233390D02*
X168864286Y-77185771D01*
X168864286Y-77185771D02*
X168816667Y-77090533D01*
X168816667Y-77090533D02*
X168816667Y-76995295D01*
X168816667Y-76995295D02*
X168864286Y-76900057D01*
X168864286Y-76900057D02*
X168911905Y-76852438D01*
X168911905Y-76852438D02*
X169007143Y-76804819D01*
X169007143Y-76804819D02*
X169245238Y-76804819D01*
X169245238Y-76804819D02*
X169388095Y-76852438D01*
X169721429Y-76804819D02*
X169959524Y-77804819D01*
X169959524Y-77804819D02*
X170150000Y-77090533D01*
X170150000Y-77090533D02*
X170340476Y-77804819D01*
X170340476Y-77804819D02*
X170578572Y-76804819D01*
X171483333Y-77804819D02*
X170911905Y-77804819D01*
X171197619Y-77804819D02*
X171197619Y-76804819D01*
X171197619Y-76804819D02*
X171102381Y-76947676D01*
X171102381Y-76947676D02*
X171007143Y-77042914D01*
X171007143Y-77042914D02*
X170911905Y-77090533D01*
X150013095Y-91204819D02*
X150013095Y-92014342D01*
X150013095Y-92014342D02*
X150060714Y-92109580D01*
X150060714Y-92109580D02*
X150108333Y-92157200D01*
X150108333Y-92157200D02*
X150203571Y-92204819D01*
X150203571Y-92204819D02*
X150394047Y-92204819D01*
X150394047Y-92204819D02*
X150489285Y-92157200D01*
X150489285Y-92157200D02*
X150536904Y-92109580D01*
X150536904Y-92109580D02*
X150584523Y-92014342D01*
X150584523Y-92014342D02*
X150584523Y-91204819D01*
X151013095Y-91300057D02*
X151060714Y-91252438D01*
X151060714Y-91252438D02*
X151155952Y-91204819D01*
X151155952Y-91204819D02*
X151394047Y-91204819D01*
X151394047Y-91204819D02*
X151489285Y-91252438D01*
X151489285Y-91252438D02*
X151536904Y-91300057D01*
X151536904Y-91300057D02*
X151584523Y-91395295D01*
X151584523Y-91395295D02*
X151584523Y-91490533D01*
X151584523Y-91490533D02*
X151536904Y-91633390D01*
X151536904Y-91633390D02*
X150965476Y-92204819D01*
X150965476Y-92204819D02*
X151584523Y-92204819D01*
X133858333Y-79484580D02*
X133810714Y-79532200D01*
X133810714Y-79532200D02*
X133667857Y-79579819D01*
X133667857Y-79579819D02*
X133572619Y-79579819D01*
X133572619Y-79579819D02*
X133429762Y-79532200D01*
X133429762Y-79532200D02*
X133334524Y-79436961D01*
X133334524Y-79436961D02*
X133286905Y-79341723D01*
X133286905Y-79341723D02*
X133239286Y-79151247D01*
X133239286Y-79151247D02*
X133239286Y-79008390D01*
X133239286Y-79008390D02*
X133286905Y-78817914D01*
X133286905Y-78817914D02*
X133334524Y-78722676D01*
X133334524Y-78722676D02*
X133429762Y-78627438D01*
X133429762Y-78627438D02*
X133572619Y-78579819D01*
X133572619Y-78579819D02*
X133667857Y-78579819D01*
X133667857Y-78579819D02*
X133810714Y-78627438D01*
X133810714Y-78627438D02*
X133858333Y-78675057D01*
X134810714Y-79579819D02*
X134239286Y-79579819D01*
X134525000Y-79579819D02*
X134525000Y-78579819D01*
X134525000Y-78579819D02*
X134429762Y-78722676D01*
X134429762Y-78722676D02*
X134334524Y-78817914D01*
X134334524Y-78817914D02*
X134239286Y-78865533D01*
X135533333Y-86334580D02*
X135485714Y-86382200D01*
X135485714Y-86382200D02*
X135342857Y-86429819D01*
X135342857Y-86429819D02*
X135247619Y-86429819D01*
X135247619Y-86429819D02*
X135104762Y-86382200D01*
X135104762Y-86382200D02*
X135009524Y-86286961D01*
X135009524Y-86286961D02*
X134961905Y-86191723D01*
X134961905Y-86191723D02*
X134914286Y-86001247D01*
X134914286Y-86001247D02*
X134914286Y-85858390D01*
X134914286Y-85858390D02*
X134961905Y-85667914D01*
X134961905Y-85667914D02*
X135009524Y-85572676D01*
X135009524Y-85572676D02*
X135104762Y-85477438D01*
X135104762Y-85477438D02*
X135247619Y-85429819D01*
X135247619Y-85429819D02*
X135342857Y-85429819D01*
X135342857Y-85429819D02*
X135485714Y-85477438D01*
X135485714Y-85477438D02*
X135533333Y-85525057D01*
X135866667Y-85429819D02*
X136485714Y-85429819D01*
X136485714Y-85429819D02*
X136152381Y-85810771D01*
X136152381Y-85810771D02*
X136295238Y-85810771D01*
X136295238Y-85810771D02*
X136390476Y-85858390D01*
X136390476Y-85858390D02*
X136438095Y-85906009D01*
X136438095Y-85906009D02*
X136485714Y-86001247D01*
X136485714Y-86001247D02*
X136485714Y-86239342D01*
X136485714Y-86239342D02*
X136438095Y-86334580D01*
X136438095Y-86334580D02*
X136390476Y-86382200D01*
X136390476Y-86382200D02*
X136295238Y-86429819D01*
X136295238Y-86429819D02*
X136009524Y-86429819D01*
X136009524Y-86429819D02*
X135914286Y-86382200D01*
X135914286Y-86382200D02*
X135866667Y-86334580D01*
X142859580Y-85666666D02*
X142907200Y-85714285D01*
X142907200Y-85714285D02*
X142954819Y-85857142D01*
X142954819Y-85857142D02*
X142954819Y-85952380D01*
X142954819Y-85952380D02*
X142907200Y-86095237D01*
X142907200Y-86095237D02*
X142811961Y-86190475D01*
X142811961Y-86190475D02*
X142716723Y-86238094D01*
X142716723Y-86238094D02*
X142526247Y-86285713D01*
X142526247Y-86285713D02*
X142383390Y-86285713D01*
X142383390Y-86285713D02*
X142192914Y-86238094D01*
X142192914Y-86238094D02*
X142097676Y-86190475D01*
X142097676Y-86190475D02*
X142002438Y-86095237D01*
X142002438Y-86095237D02*
X141954819Y-85952380D01*
X141954819Y-85952380D02*
X141954819Y-85857142D01*
X141954819Y-85857142D02*
X142002438Y-85714285D01*
X142002438Y-85714285D02*
X142050057Y-85666666D01*
X142288152Y-84809523D02*
X142954819Y-84809523D01*
X141907200Y-85047618D02*
X142621485Y-85285713D01*
X142621485Y-85285713D02*
X142621485Y-84666666D01*
X169933333Y-86184580D02*
X169885714Y-86232200D01*
X169885714Y-86232200D02*
X169742857Y-86279819D01*
X169742857Y-86279819D02*
X169647619Y-86279819D01*
X169647619Y-86279819D02*
X169504762Y-86232200D01*
X169504762Y-86232200D02*
X169409524Y-86136961D01*
X169409524Y-86136961D02*
X169361905Y-86041723D01*
X169361905Y-86041723D02*
X169314286Y-85851247D01*
X169314286Y-85851247D02*
X169314286Y-85708390D01*
X169314286Y-85708390D02*
X169361905Y-85517914D01*
X169361905Y-85517914D02*
X169409524Y-85422676D01*
X169409524Y-85422676D02*
X169504762Y-85327438D01*
X169504762Y-85327438D02*
X169647619Y-85279819D01*
X169647619Y-85279819D02*
X169742857Y-85279819D01*
X169742857Y-85279819D02*
X169885714Y-85327438D01*
X169885714Y-85327438D02*
X169933333Y-85375057D01*
X170838095Y-85279819D02*
X170361905Y-85279819D01*
X170361905Y-85279819D02*
X170314286Y-85756009D01*
X170314286Y-85756009D02*
X170361905Y-85708390D01*
X170361905Y-85708390D02*
X170457143Y-85660771D01*
X170457143Y-85660771D02*
X170695238Y-85660771D01*
X170695238Y-85660771D02*
X170790476Y-85708390D01*
X170790476Y-85708390D02*
X170838095Y-85756009D01*
X170838095Y-85756009D02*
X170885714Y-85851247D01*
X170885714Y-85851247D02*
X170885714Y-86089342D01*
X170885714Y-86089342D02*
X170838095Y-86184580D01*
X170838095Y-86184580D02*
X170790476Y-86232200D01*
X170790476Y-86232200D02*
X170695238Y-86279819D01*
X170695238Y-86279819D02*
X170457143Y-86279819D01*
X170457143Y-86279819D02*
X170361905Y-86232200D01*
X170361905Y-86232200D02*
X170314286Y-86184580D01*
X135013095Y-73104819D02*
X135584523Y-73104819D01*
X135298809Y-74104819D02*
X135298809Y-73104819D01*
X135917857Y-74104819D02*
X135917857Y-73104819D01*
X135917857Y-73104819D02*
X136298809Y-73104819D01*
X136298809Y-73104819D02*
X136394047Y-73152438D01*
X136394047Y-73152438D02*
X136441666Y-73200057D01*
X136441666Y-73200057D02*
X136489285Y-73295295D01*
X136489285Y-73295295D02*
X136489285Y-73438152D01*
X136489285Y-73438152D02*
X136441666Y-73533390D01*
X136441666Y-73533390D02*
X136394047Y-73581009D01*
X136394047Y-73581009D02*
X136298809Y-73628628D01*
X136298809Y-73628628D02*
X135917857Y-73628628D01*
X137441666Y-74104819D02*
X136870238Y-74104819D01*
X137155952Y-74104819D02*
X137155952Y-73104819D01*
X137155952Y-73104819D02*
X137060714Y-73247676D01*
X137060714Y-73247676D02*
X136965476Y-73342914D01*
X136965476Y-73342914D02*
X136870238Y-73390533D01*
X133638095Y-88229819D02*
X134209523Y-88229819D01*
X133923809Y-89229819D02*
X133923809Y-88229819D01*
X134542857Y-89229819D02*
X134542857Y-88229819D01*
X134542857Y-88229819D02*
X134923809Y-88229819D01*
X134923809Y-88229819D02*
X135019047Y-88277438D01*
X135019047Y-88277438D02*
X135066666Y-88325057D01*
X135066666Y-88325057D02*
X135114285Y-88420295D01*
X135114285Y-88420295D02*
X135114285Y-88563152D01*
X135114285Y-88563152D02*
X135066666Y-88658390D01*
X135066666Y-88658390D02*
X135019047Y-88706009D01*
X135019047Y-88706009D02*
X134923809Y-88753628D01*
X134923809Y-88753628D02*
X134542857Y-88753628D01*
X135495238Y-88325057D02*
X135542857Y-88277438D01*
X135542857Y-88277438D02*
X135638095Y-88229819D01*
X135638095Y-88229819D02*
X135876190Y-88229819D01*
X135876190Y-88229819D02*
X135971428Y-88277438D01*
X135971428Y-88277438D02*
X136019047Y-88325057D01*
X136019047Y-88325057D02*
X136066666Y-88420295D01*
X136066666Y-88420295D02*
X136066666Y-88515533D01*
X136066666Y-88515533D02*
X136019047Y-88658390D01*
X136019047Y-88658390D02*
X135447619Y-89229819D01*
X135447619Y-89229819D02*
X136066666Y-89229819D01*
X168863095Y-72752819D02*
X169434523Y-72752819D01*
X169148809Y-73752819D02*
X169148809Y-72752819D01*
X169767857Y-73752819D02*
X169767857Y-72752819D01*
X169767857Y-72752819D02*
X170148809Y-72752819D01*
X170148809Y-72752819D02*
X170244047Y-72800438D01*
X170244047Y-72800438D02*
X170291666Y-72848057D01*
X170291666Y-72848057D02*
X170339285Y-72943295D01*
X170339285Y-72943295D02*
X170339285Y-73086152D01*
X170339285Y-73086152D02*
X170291666Y-73181390D01*
X170291666Y-73181390D02*
X170244047Y-73229009D01*
X170244047Y-73229009D02*
X170148809Y-73276628D01*
X170148809Y-73276628D02*
X169767857Y-73276628D01*
X170672619Y-72752819D02*
X171291666Y-72752819D01*
X171291666Y-72752819D02*
X170958333Y-73133771D01*
X170958333Y-73133771D02*
X171101190Y-73133771D01*
X171101190Y-73133771D02*
X171196428Y-73181390D01*
X171196428Y-73181390D02*
X171244047Y-73229009D01*
X171244047Y-73229009D02*
X171291666Y-73324247D01*
X171291666Y-73324247D02*
X171291666Y-73562342D01*
X171291666Y-73562342D02*
X171244047Y-73657580D01*
X171244047Y-73657580D02*
X171196428Y-73705200D01*
X171196428Y-73705200D02*
X171101190Y-73752819D01*
X171101190Y-73752819D02*
X170815476Y-73752819D01*
X170815476Y-73752819D02*
X170720238Y-73705200D01*
X170720238Y-73705200D02*
X170672619Y-73657580D01*
X140933333Y-82854819D02*
X140600000Y-82378628D01*
X140361905Y-82854819D02*
X140361905Y-81854819D01*
X140361905Y-81854819D02*
X140742857Y-81854819D01*
X140742857Y-81854819D02*
X140838095Y-81902438D01*
X140838095Y-81902438D02*
X140885714Y-81950057D01*
X140885714Y-81950057D02*
X140933333Y-82045295D01*
X140933333Y-82045295D02*
X140933333Y-82188152D01*
X140933333Y-82188152D02*
X140885714Y-82283390D01*
X140885714Y-82283390D02*
X140838095Y-82331009D01*
X140838095Y-82331009D02*
X140742857Y-82378628D01*
X140742857Y-82378628D02*
X140361905Y-82378628D01*
X141314286Y-81950057D02*
X141361905Y-81902438D01*
X141361905Y-81902438D02*
X141457143Y-81854819D01*
X141457143Y-81854819D02*
X141695238Y-81854819D01*
X141695238Y-81854819D02*
X141790476Y-81902438D01*
X141790476Y-81902438D02*
X141838095Y-81950057D01*
X141838095Y-81950057D02*
X141885714Y-82045295D01*
X141885714Y-82045295D02*
X141885714Y-82140533D01*
X141885714Y-82140533D02*
X141838095Y-82283390D01*
X141838095Y-82283390D02*
X141266667Y-82854819D01*
X141266667Y-82854819D02*
X141885714Y-82854819D01*
X144871666Y-94164819D02*
X144871666Y-94879104D01*
X144871666Y-94879104D02*
X144824047Y-95021961D01*
X144824047Y-95021961D02*
X144728809Y-95117200D01*
X144728809Y-95117200D02*
X144585952Y-95164819D01*
X144585952Y-95164819D02*
X144490714Y-95164819D01*
X145300238Y-94260057D02*
X145347857Y-94212438D01*
X145347857Y-94212438D02*
X145443095Y-94164819D01*
X145443095Y-94164819D02*
X145681190Y-94164819D01*
X145681190Y-94164819D02*
X145776428Y-94212438D01*
X145776428Y-94212438D02*
X145824047Y-94260057D01*
X145824047Y-94260057D02*
X145871666Y-94355295D01*
X145871666Y-94355295D02*
X145871666Y-94450533D01*
X145871666Y-94450533D02*
X145824047Y-94593390D01*
X145824047Y-94593390D02*
X145252619Y-95164819D01*
X145252619Y-95164819D02*
X145871666Y-95164819D01*
D11*
X153860237Y-82274318D02*
X153860237Y-81004318D01*
X155190714Y-82153365D02*
X155130238Y-82213842D01*
X155130238Y-82213842D02*
X154948809Y-82274318D01*
X154948809Y-82274318D02*
X154827857Y-82274318D01*
X154827857Y-82274318D02*
X154646428Y-82213842D01*
X154646428Y-82213842D02*
X154525476Y-82092889D01*
X154525476Y-82092889D02*
X154464999Y-81971937D01*
X154464999Y-81971937D02*
X154404523Y-81730032D01*
X154404523Y-81730032D02*
X154404523Y-81548603D01*
X154404523Y-81548603D02*
X154464999Y-81306699D01*
X154464999Y-81306699D02*
X154525476Y-81185746D01*
X154525476Y-81185746D02*
X154646428Y-81064794D01*
X154646428Y-81064794D02*
X154827857Y-81004318D01*
X154827857Y-81004318D02*
X154948809Y-81004318D01*
X154948809Y-81004318D02*
X155130238Y-81064794D01*
X155130238Y-81064794D02*
X155190714Y-81125270D01*
X156400238Y-82274318D02*
X155674523Y-82274318D01*
X156037380Y-82274318D02*
X156037380Y-81004318D01*
X156037380Y-81004318D02*
X155916428Y-81185746D01*
X155916428Y-81185746D02*
X155795476Y-81306699D01*
X155795476Y-81306699D02*
X155674523Y-81367175D01*
D12*
%TO.C,R4*%
X125637258Y-74886700D02*
X125162742Y-74886700D01*
X125637258Y-73841700D02*
X125162742Y-73841700D01*
%TO.C,J1*%
X126680000Y-77455000D02*
X128090000Y-77455000D01*
X126680000Y-86615000D02*
X128090000Y-86615000D01*
X130760000Y-78275000D02*
X130610000Y-78275000D01*
X130760000Y-79075000D02*
X130760000Y-78275000D01*
%TO.C,U1*%
X136490000Y-76940000D02*
X138310000Y-76940000D01*
X136490000Y-76990000D02*
X136490000Y-76940000D01*
X136490000Y-80060000D02*
X136490000Y-80010000D01*
X138310000Y-76940000D02*
X138310000Y-76990000D01*
X138310000Y-78110000D02*
X138310000Y-78890000D01*
X138310000Y-80010000D02*
X138310000Y-80060000D01*
X138310000Y-80060000D02*
X136490000Y-80060000D01*
X135950000Y-76990000D02*
X135710000Y-76660000D01*
X136190000Y-76660000D01*
X135950000Y-76990000D01*
G36*
X135950000Y-76990000D02*
G01*
X135710000Y-76660000D01*
X136190000Y-76660000D01*
X135950000Y-76990000D01*
G37*
%TO.C,R3*%
X140577500Y-77137258D02*
X140577500Y-76662742D01*
X141622500Y-77137258D02*
X141622500Y-76662742D01*
%TO.C,J3*%
X146645000Y-68005000D02*
X147975000Y-68005000D01*
X146645000Y-69335000D02*
X146645000Y-68005000D01*
X149245000Y-68005000D02*
X167085000Y-68005000D01*
X149245000Y-70665000D02*
X149245000Y-68005000D01*
X149245000Y-70665000D02*
X167085000Y-70665000D01*
X167085000Y-70665000D02*
X167085000Y-68005000D01*
%TO.C,JP1*%
X138750000Y-89075000D02*
X138750000Y-88475000D01*
X139450000Y-87775000D02*
X140850000Y-87775000D01*
X140850000Y-89775000D02*
X139450000Y-89775000D01*
X141550000Y-88475000D02*
X141550000Y-89075000D01*
X138750000Y-88475000D02*
G75*
G02*
X139450000Y-87775000I699999J1D01*
G01*
X139450000Y-89775000D02*
G75*
G02*
X138750000Y-89075000I-1J699999D01*
G01*
X140850000Y-87775000D02*
G75*
G02*
X141550000Y-88475000I0J-700000D01*
G01*
X141550000Y-89075000D02*
G75*
G02*
X140850000Y-89775000I-700000J0D01*
G01*
%TO.C,R1*%
X125657058Y-89183300D02*
X125182542Y-89183300D01*
X125657058Y-90228300D02*
X125182542Y-90228300D01*
%TO.C,L1*%
X137700000Y-84710000D02*
X135700000Y-84710000D01*
X139700000Y-80490000D02*
X135700000Y-80490000D01*
%TO.C,C2*%
X131415000Y-76995580D02*
X131415000Y-76714420D01*
X132435000Y-76995580D02*
X132435000Y-76714420D01*
%TO.C,SW1*%
X168750000Y-78950000D02*
X168750000Y-82250000D01*
X168750000Y-82250000D02*
X169050000Y-82250000D01*
X169050000Y-78950000D02*
X168750000Y-78950000D01*
X171250000Y-78950000D02*
X171550000Y-78950000D01*
X171550000Y-78950000D02*
X171550000Y-82250000D01*
X171550000Y-82250000D02*
X171250000Y-82250000D01*
X171870000Y-79600000D02*
X171550000Y-79600000D01*
X171870000Y-81600000D02*
X171550000Y-81600000D01*
X172250000Y-80100000D02*
X171870000Y-79600000D01*
X172250000Y-80100000D02*
X172250000Y-81100000D01*
X172250000Y-81100000D02*
X171870000Y-81600000D01*
%TO.C,U2*%
X148025000Y-91750000D02*
X148025000Y-92300000D01*
X148025000Y-92300000D02*
X148225000Y-92300000D01*
X149325000Y-91750000D02*
X149325000Y-92300000D01*
X149325000Y-92300000D02*
X149125000Y-92300000D01*
X149715000Y-91320000D02*
X149435000Y-91320000D01*
X149435000Y-91040000D01*
X149715000Y-91320000D01*
G36*
X149715000Y-91320000D02*
G01*
X149435000Y-91320000D01*
X149435000Y-91040000D01*
X149715000Y-91320000D01*
G37*
%TO.C,C1*%
X133240000Y-76911252D02*
X133240000Y-76388748D01*
X134710000Y-76911252D02*
X134710000Y-76388748D01*
%TO.C,C3*%
X138661252Y-85290000D02*
X138138748Y-85290000D01*
X138661252Y-86760000D02*
X138138748Y-86760000D01*
%TO.C,C4*%
X140590000Y-85640580D02*
X140590000Y-85359420D01*
X141610000Y-85640580D02*
X141610000Y-85359420D01*
%TO.C,C5*%
X170265580Y-83490000D02*
X169984420Y-83490000D01*
X170265580Y-84510000D02*
X169984420Y-84510000D01*
%TO.C,TP1*%
X136925000Y-75300000D02*
G75*
G02*
X135525000Y-75300000I-700000J0D01*
G01*
X135525000Y-75300000D02*
G75*
G02*
X136925000Y-75300000I700000J0D01*
G01*
%TO.C,TP2*%
X138050000Y-88800000D02*
G75*
G02*
X136650000Y-88800000I-700000J0D01*
G01*
X136650000Y-88800000D02*
G75*
G02*
X138050000Y-88800000I700000J0D01*
G01*
%TO.C,TP3*%
X170775000Y-74923000D02*
G75*
G02*
X169375000Y-74923000I-700000J0D01*
G01*
X169375000Y-74923000D02*
G75*
G02*
X170775000Y-74923000I700000J0D01*
G01*
%TO.C,R2*%
X140577500Y-80337258D02*
X140577500Y-79862742D01*
X141622500Y-80337258D02*
X141622500Y-79862742D01*
%TO.C,J2*%
X146645000Y-93380000D02*
X147975000Y-93380000D01*
X146645000Y-94710000D02*
X146645000Y-93380000D01*
X149245000Y-93380000D02*
X167085000Y-93380000D01*
X149245000Y-96040000D02*
X149245000Y-93380000D01*
X149245000Y-96040000D02*
X167085000Y-96040000D01*
X167085000Y-96040000D02*
X167085000Y-93380000D01*
D13*
%TO.C,IC1*%
X146900000Y-90300000D02*
G75*
G02*
X146900000Y-90200000I0J50000D01*
G01*
X146900000Y-90200000D02*
G75*
G02*
X146900000Y-90300000I0J-50000D01*
G01*
D14*
X166600000Y-89200000D02*
X166600000Y-87950000D01*
X166600000Y-75450000D02*
X166600000Y-74200000D01*
X166600000Y-74200000D02*
X164600000Y-74200000D01*
X162100000Y-89200000D02*
X166600000Y-89200000D01*
X148600000Y-74200000D02*
X143600000Y-74200000D01*
D13*
X146900000Y-90300000D02*
X146900000Y-90300000D01*
X146900000Y-90200000D02*
X146900000Y-90200000D01*
D14*
X146100000Y-89200000D02*
X143600000Y-89200000D01*
X143600000Y-89200000D02*
X143600000Y-87950000D01*
X143600000Y-74200000D02*
X143600000Y-75450000D01*
%TD*%
M02*
