%TF.GenerationSoftware,KiCad,Pcbnew,9.0.7-1.fc43app1*%
%TF.CreationDate,2026-04-11T12:15:05+02:00*%
%TF.ProjectId,rak4630_interface,72616b34-3633-4305-9f69-6e7465726661,rev?*%
%TF.SameCoordinates,Original*%
%TF.FileFunction,Paste,Top*%
%TF.FilePolarity,Positive*%
%FSLAX46Y46*%
G04 Gerber Fmt 4.6, Leading zero omitted, Abs format (unit mm)*
G04 Created by KiCad (PCBNEW 9.0.7-1.fc43app1) date 2026-04-11 12:15:05*
%MOMM*%
%LPD*%
G01*
G04 APERTURE LIST*
G04 Aperture macros list*
%AMRoundRect*
0 Rectangle with rounded corners*
0 $1 Rounding radius*
0 $2 $3 $4 $5 $6 $7 $8 $9 X,Y pos of 4 corners*
0 Add a 4 corners polygon primitive as box body*
4,1,4,$2,$3,$4,$5,$6,$7,$8,$9,$2,$3,0*
0 Add four circle primitives for the rounded corners*
1,1,$1+$1,$2,$3*
1,1,$1+$1,$4,$5*
1,1,$1+$1,$6,$7*
1,1,$1+$1,$8,$9*
0 Add four rect primitives between the rounded corners*
20,1,$1+$1,$2,$3,$4,$5,0*
20,1,$1+$1,$4,$5,$6,$7,0*
20,1,$1+$1,$6,$7,$8,$9,0*
20,1,$1+$1,$8,$9,$2,$3,0*%
G04 Aperture macros list end*
%ADD10RoundRect,0.150000X-0.512500X-0.150000X0.512500X-0.150000X0.512500X0.150000X-0.512500X0.150000X0*%
%ADD11RoundRect,0.200000X0.275000X-0.200000X0.275000X0.200000X-0.275000X0.200000X-0.275000X-0.200000X0*%
%ADD12RoundRect,0.200000X0.200000X0.275000X-0.200000X0.275000X-0.200000X-0.275000X0.200000X-0.275000X0*%
%ADD13R,1.200000X3.300000*%
%ADD14RoundRect,0.225000X0.250000X-0.225000X0.250000X0.225000X-0.250000X0.225000X-0.250000X-0.225000X0*%
%ADD15R,1.700000X0.900000*%
%ADD16RoundRect,0.075000X0.075000X0.075000X-0.075000X0.075000X-0.075000X-0.075000X0.075000X-0.075000X0*%
%ADD17RoundRect,0.250000X0.475000X-0.250000X0.475000X0.250000X-0.475000X0.250000X-0.475000X-0.250000X0*%
%ADD18RoundRect,0.250000X0.250000X0.475000X-0.250000X0.475000X-0.250000X-0.475000X0.250000X-0.475000X0*%
%ADD19RoundRect,0.225000X0.225000X0.250000X-0.225000X0.250000X-0.225000X-0.250000X0.225000X-0.250000X0*%
%ADD20RoundRect,0.150000X-0.425000X0.150000X-0.425000X-0.150000X0.425000X-0.150000X0.425000X0.150000X0*%
%ADD21RoundRect,0.075000X-0.500000X0.075000X-0.500000X-0.075000X0.500000X-0.075000X0.500000X0.075000X0*%
%ADD22RoundRect,0.250000X-0.750000X0.840000X-0.750000X-0.840000X0.750000X-0.840000X0.750000X0.840000X0*%
%ADD23R,0.900000X1.300000*%
%ADD24R,1.300000X0.900000*%
G04 APERTURE END LIST*
D10*
%TO.C,U1*%
X136262500Y-77550000D03*
X136262500Y-78500000D03*
X136262500Y-79450000D03*
X138537500Y-79450000D03*
X138537500Y-77550000D03*
%TD*%
D11*
%TO.C,R3*%
X141100000Y-77725000D03*
X141100000Y-76075000D03*
%TD*%
D12*
%TO.C,R1*%
X126244800Y-89705800D03*
X124594800Y-89705800D03*
%TD*%
D13*
%TO.C,L1*%
X139250000Y-82600000D03*
X136150000Y-82600000D03*
%TD*%
D14*
%TO.C,C2*%
X131925000Y-77630000D03*
X131925000Y-76080000D03*
%TD*%
D15*
%TO.C,SW1*%
X170358000Y-86761200D03*
X170358000Y-90161200D03*
%TD*%
D16*
%TO.C,U2*%
X149025000Y-91325000D03*
X148325000Y-91325000D03*
X148675000Y-92175000D03*
%TD*%
D17*
%TO.C,C1*%
X133975000Y-77600000D03*
X133975000Y-75700000D03*
%TD*%
D18*
%TO.C,C3*%
X139350000Y-86025000D03*
X137450000Y-86025000D03*
%TD*%
D14*
%TO.C,C4*%
X141100000Y-86275000D03*
X141100000Y-84725000D03*
%TD*%
D19*
%TO.C,C5*%
X171076600Y-83508200D03*
X169526600Y-83508200D03*
%TD*%
D20*
%TO.C,J1*%
X129925000Y-78835000D03*
X129925000Y-79635000D03*
D21*
X129925000Y-80785000D03*
X129925000Y-81785000D03*
X129925000Y-82285000D03*
X129925000Y-83285000D03*
D20*
X129925000Y-84435000D03*
X129925000Y-85235000D03*
X129925000Y-85235000D03*
X129925000Y-84435000D03*
D21*
X129925000Y-83785000D03*
X129925000Y-82785000D03*
X129925000Y-81285000D03*
X129925000Y-80285000D03*
D20*
X129925000Y-79635000D03*
X129925000Y-78835000D03*
D22*
X129350000Y-76925000D03*
X125420000Y-76925000D03*
X129350000Y-87145000D03*
X125420000Y-87145000D03*
%TD*%
D12*
%TO.C,R4*%
X126225000Y-74364200D03*
X124575000Y-74364200D03*
%TD*%
D11*
%TO.C,R2*%
X141100000Y-80925000D03*
X141100000Y-79275000D03*
%TD*%
D23*
%TO.C,IC1*%
X146900000Y-89070000D03*
X148100000Y-89070000D03*
X149300000Y-89070000D03*
X150500000Y-89070000D03*
X151700000Y-89070000D03*
X152900000Y-89070000D03*
X154100000Y-89070000D03*
X155300000Y-89070000D03*
X156500000Y-89070000D03*
X157700000Y-89070000D03*
X158900000Y-89070000D03*
X160100000Y-89070000D03*
X161300000Y-89070000D03*
D24*
X166470000Y-87110000D03*
X166470000Y-85910000D03*
X166470000Y-83510000D03*
X166470000Y-82310000D03*
X166470000Y-81110000D03*
X166470000Y-79910000D03*
X166470000Y-78710000D03*
X166470000Y-77510000D03*
X166470000Y-76310000D03*
D23*
X163800000Y-74330000D03*
X162600000Y-74330000D03*
X161400000Y-74330000D03*
X160200000Y-74330000D03*
X159000000Y-74330000D03*
X157800000Y-74330000D03*
X156600000Y-74330000D03*
X155400000Y-74330000D03*
X154200000Y-74330000D03*
X153000000Y-74330000D03*
X151800000Y-74330000D03*
X150600000Y-74330000D03*
X149400000Y-74330000D03*
D24*
X143730000Y-76250000D03*
X143730000Y-77450000D03*
X143730000Y-79850000D03*
X143730000Y-81050000D03*
X143730000Y-82250000D03*
X143730000Y-83450000D03*
X143730000Y-84650000D03*
X143730000Y-85850000D03*
X143730000Y-87050000D03*
%TD*%
M02*
