%TF.GenerationSoftware,KiCad,Pcbnew,9.0.7-1.fc43app1*%
%TF.CreationDate,2026-04-10T15:50:34+02:00*%
%TF.ProjectId,rak4630_interface,72616b34-3633-4305-9f69-6e7465726661,rev?*%
%TF.SameCoordinates,Original*%
%TF.FileFunction,Legend,Bot*%
%TF.FilePolarity,Positive*%
%FSLAX46Y46*%
G04 Gerber Fmt 4.6, Leading zero omitted, Abs format (unit mm)*
G04 Created by KiCad (PCBNEW 9.0.7-1.fc43app1) date 2026-04-10 15:50:34*
%MOMM*%
%LPD*%
G01*
G04 APERTURE LIST*
%ADD10C,0.100000*%
%ADD11C,0.010000*%
G04 APERTURE END LIST*
D10*
X164554163Y-87302609D02*
X164554163Y-86802609D01*
X164339877Y-87302609D02*
X164339877Y-87040704D01*
X164339877Y-87040704D02*
X164363687Y-86993085D01*
X164363687Y-86993085D02*
X164411306Y-86969276D01*
X164411306Y-86969276D02*
X164482734Y-86969276D01*
X164482734Y-86969276D02*
X164530353Y-86993085D01*
X164530353Y-86993085D02*
X164554163Y-87016895D01*
X164173210Y-86969276D02*
X163982734Y-86969276D01*
X164101782Y-86802609D02*
X164101782Y-87231180D01*
X164101782Y-87231180D02*
X164077972Y-87278800D01*
X164077972Y-87278800D02*
X164030353Y-87302609D01*
X164030353Y-87302609D02*
X163982734Y-87302609D01*
X163887496Y-86969276D02*
X163697020Y-86969276D01*
X163816068Y-86802609D02*
X163816068Y-87231180D01*
X163816068Y-87231180D02*
X163792258Y-87278800D01*
X163792258Y-87278800D02*
X163744639Y-87302609D01*
X163744639Y-87302609D02*
X163697020Y-87302609D01*
X163530354Y-86969276D02*
X163530354Y-87469276D01*
X163530354Y-86993085D02*
X163482735Y-86969276D01*
X163482735Y-86969276D02*
X163387497Y-86969276D01*
X163387497Y-86969276D02*
X163339878Y-86993085D01*
X163339878Y-86993085D02*
X163316068Y-87016895D01*
X163316068Y-87016895D02*
X163292259Y-87064514D01*
X163292259Y-87064514D02*
X163292259Y-87207371D01*
X163292259Y-87207371D02*
X163316068Y-87254990D01*
X163316068Y-87254990D02*
X163339878Y-87278800D01*
X163339878Y-87278800D02*
X163387497Y-87302609D01*
X163387497Y-87302609D02*
X163482735Y-87302609D01*
X163482735Y-87302609D02*
X163530354Y-87278800D01*
X163101782Y-87278800D02*
X163054163Y-87302609D01*
X163054163Y-87302609D02*
X162958925Y-87302609D01*
X162958925Y-87302609D02*
X162911306Y-87278800D01*
X162911306Y-87278800D02*
X162887497Y-87231180D01*
X162887497Y-87231180D02*
X162887497Y-87207371D01*
X162887497Y-87207371D02*
X162911306Y-87159752D01*
X162911306Y-87159752D02*
X162958925Y-87135942D01*
X162958925Y-87135942D02*
X163030354Y-87135942D01*
X163030354Y-87135942D02*
X163077973Y-87112133D01*
X163077973Y-87112133D02*
X163101782Y-87064514D01*
X163101782Y-87064514D02*
X163101782Y-87040704D01*
X163101782Y-87040704D02*
X163077973Y-86993085D01*
X163077973Y-86993085D02*
X163030354Y-86969276D01*
X163030354Y-86969276D02*
X162958925Y-86969276D01*
X162958925Y-86969276D02*
X162911306Y-86993085D01*
X162673211Y-87254990D02*
X162649401Y-87278800D01*
X162649401Y-87278800D02*
X162673211Y-87302609D01*
X162673211Y-87302609D02*
X162697020Y-87278800D01*
X162697020Y-87278800D02*
X162673211Y-87254990D01*
X162673211Y-87254990D02*
X162673211Y-87302609D01*
X162673211Y-86993085D02*
X162649401Y-87016895D01*
X162649401Y-87016895D02*
X162673211Y-87040704D01*
X162673211Y-87040704D02*
X162697020Y-87016895D01*
X162697020Y-87016895D02*
X162673211Y-86993085D01*
X162673211Y-86993085D02*
X162673211Y-87040704D01*
X162077973Y-86778800D02*
X162506544Y-87421657D01*
X161554163Y-86778800D02*
X161982734Y-87421657D01*
X161173210Y-86969276D02*
X161173210Y-87374038D01*
X161173210Y-87374038D02*
X161197020Y-87421657D01*
X161197020Y-87421657D02*
X161220829Y-87445466D01*
X161220829Y-87445466D02*
X161268448Y-87469276D01*
X161268448Y-87469276D02*
X161339877Y-87469276D01*
X161339877Y-87469276D02*
X161387496Y-87445466D01*
X161173210Y-87278800D02*
X161220829Y-87302609D01*
X161220829Y-87302609D02*
X161316067Y-87302609D01*
X161316067Y-87302609D02*
X161363686Y-87278800D01*
X161363686Y-87278800D02*
X161387496Y-87254990D01*
X161387496Y-87254990D02*
X161411305Y-87207371D01*
X161411305Y-87207371D02*
X161411305Y-87064514D01*
X161411305Y-87064514D02*
X161387496Y-87016895D01*
X161387496Y-87016895D02*
X161363686Y-86993085D01*
X161363686Y-86993085D02*
X161316067Y-86969276D01*
X161316067Y-86969276D02*
X161220829Y-86969276D01*
X161220829Y-86969276D02*
X161173210Y-86993085D01*
X160935115Y-87302609D02*
X160935115Y-86969276D01*
X160935115Y-86802609D02*
X160958924Y-86826419D01*
X160958924Y-86826419D02*
X160935115Y-86850228D01*
X160935115Y-86850228D02*
X160911305Y-86826419D01*
X160911305Y-86826419D02*
X160935115Y-86802609D01*
X160935115Y-86802609D02*
X160935115Y-86850228D01*
X160768448Y-86969276D02*
X160577972Y-86969276D01*
X160697020Y-86802609D02*
X160697020Y-87231180D01*
X160697020Y-87231180D02*
X160673210Y-87278800D01*
X160673210Y-87278800D02*
X160625591Y-87302609D01*
X160625591Y-87302609D02*
X160577972Y-87302609D01*
X160411306Y-87302609D02*
X160411306Y-86802609D01*
X160197020Y-87302609D02*
X160197020Y-87040704D01*
X160197020Y-87040704D02*
X160220830Y-86993085D01*
X160220830Y-86993085D02*
X160268449Y-86969276D01*
X160268449Y-86969276D02*
X160339877Y-86969276D01*
X160339877Y-86969276D02*
X160387496Y-86993085D01*
X160387496Y-86993085D02*
X160411306Y-87016895D01*
X159744639Y-86969276D02*
X159744639Y-87302609D01*
X159958925Y-86969276D02*
X159958925Y-87231180D01*
X159958925Y-87231180D02*
X159935115Y-87278800D01*
X159935115Y-87278800D02*
X159887496Y-87302609D01*
X159887496Y-87302609D02*
X159816068Y-87302609D01*
X159816068Y-87302609D02*
X159768449Y-87278800D01*
X159768449Y-87278800D02*
X159744639Y-87254990D01*
X159506544Y-87302609D02*
X159506544Y-86802609D01*
X159506544Y-86993085D02*
X159458925Y-86969276D01*
X159458925Y-86969276D02*
X159363687Y-86969276D01*
X159363687Y-86969276D02*
X159316068Y-86993085D01*
X159316068Y-86993085D02*
X159292258Y-87016895D01*
X159292258Y-87016895D02*
X159268449Y-87064514D01*
X159268449Y-87064514D02*
X159268449Y-87207371D01*
X159268449Y-87207371D02*
X159292258Y-87254990D01*
X159292258Y-87254990D02*
X159316068Y-87278800D01*
X159316068Y-87278800D02*
X159363687Y-87302609D01*
X159363687Y-87302609D02*
X159458925Y-87302609D01*
X159458925Y-87302609D02*
X159506544Y-87278800D01*
X159054163Y-87254990D02*
X159030353Y-87278800D01*
X159030353Y-87278800D02*
X159054163Y-87302609D01*
X159054163Y-87302609D02*
X159077972Y-87278800D01*
X159077972Y-87278800D02*
X159054163Y-87254990D01*
X159054163Y-87254990D02*
X159054163Y-87302609D01*
X158601782Y-87278800D02*
X158649401Y-87302609D01*
X158649401Y-87302609D02*
X158744639Y-87302609D01*
X158744639Y-87302609D02*
X158792258Y-87278800D01*
X158792258Y-87278800D02*
X158816068Y-87254990D01*
X158816068Y-87254990D02*
X158839877Y-87207371D01*
X158839877Y-87207371D02*
X158839877Y-87064514D01*
X158839877Y-87064514D02*
X158816068Y-87016895D01*
X158816068Y-87016895D02*
X158792258Y-86993085D01*
X158792258Y-86993085D02*
X158744639Y-86969276D01*
X158744639Y-86969276D02*
X158649401Y-86969276D01*
X158649401Y-86969276D02*
X158601782Y-86993085D01*
X158316068Y-87302609D02*
X158363687Y-87278800D01*
X158363687Y-87278800D02*
X158387497Y-87254990D01*
X158387497Y-87254990D02*
X158411306Y-87207371D01*
X158411306Y-87207371D02*
X158411306Y-87064514D01*
X158411306Y-87064514D02*
X158387497Y-87016895D01*
X158387497Y-87016895D02*
X158363687Y-86993085D01*
X158363687Y-86993085D02*
X158316068Y-86969276D01*
X158316068Y-86969276D02*
X158244640Y-86969276D01*
X158244640Y-86969276D02*
X158197021Y-86993085D01*
X158197021Y-86993085D02*
X158173211Y-87016895D01*
X158173211Y-87016895D02*
X158149402Y-87064514D01*
X158149402Y-87064514D02*
X158149402Y-87207371D01*
X158149402Y-87207371D02*
X158173211Y-87254990D01*
X158173211Y-87254990D02*
X158197021Y-87278800D01*
X158197021Y-87278800D02*
X158244640Y-87302609D01*
X158244640Y-87302609D02*
X158316068Y-87302609D01*
X157935116Y-87302609D02*
X157935116Y-86969276D01*
X157935116Y-87016895D02*
X157911306Y-86993085D01*
X157911306Y-86993085D02*
X157863687Y-86969276D01*
X157863687Y-86969276D02*
X157792259Y-86969276D01*
X157792259Y-86969276D02*
X157744640Y-86993085D01*
X157744640Y-86993085D02*
X157720830Y-87040704D01*
X157720830Y-87040704D02*
X157720830Y-87302609D01*
X157720830Y-87040704D02*
X157697021Y-86993085D01*
X157697021Y-86993085D02*
X157649402Y-86969276D01*
X157649402Y-86969276D02*
X157577973Y-86969276D01*
X157577973Y-86969276D02*
X157530354Y-86993085D01*
X157530354Y-86993085D02*
X157506544Y-87040704D01*
X157506544Y-87040704D02*
X157506544Y-87302609D01*
X156911306Y-86778800D02*
X157339877Y-87421657D01*
X156744639Y-86969276D02*
X156744639Y-87469276D01*
X156744639Y-86993085D02*
X156697020Y-86969276D01*
X156697020Y-86969276D02*
X156601782Y-86969276D01*
X156601782Y-86969276D02*
X156554163Y-86993085D01*
X156554163Y-86993085D02*
X156530353Y-87016895D01*
X156530353Y-87016895D02*
X156506544Y-87064514D01*
X156506544Y-87064514D02*
X156506544Y-87207371D01*
X156506544Y-87207371D02*
X156530353Y-87254990D01*
X156530353Y-87254990D02*
X156554163Y-87278800D01*
X156554163Y-87278800D02*
X156601782Y-87302609D01*
X156601782Y-87302609D02*
X156697020Y-87302609D01*
X156697020Y-87302609D02*
X156744639Y-87278800D01*
X156077972Y-87302609D02*
X156077972Y-87040704D01*
X156077972Y-87040704D02*
X156101782Y-86993085D01*
X156101782Y-86993085D02*
X156149401Y-86969276D01*
X156149401Y-86969276D02*
X156244639Y-86969276D01*
X156244639Y-86969276D02*
X156292258Y-86993085D01*
X156077972Y-87278800D02*
X156125591Y-87302609D01*
X156125591Y-87302609D02*
X156244639Y-87302609D01*
X156244639Y-87302609D02*
X156292258Y-87278800D01*
X156292258Y-87278800D02*
X156316067Y-87231180D01*
X156316067Y-87231180D02*
X156316067Y-87183561D01*
X156316067Y-87183561D02*
X156292258Y-87135942D01*
X156292258Y-87135942D02*
X156244639Y-87112133D01*
X156244639Y-87112133D02*
X156125591Y-87112133D01*
X156125591Y-87112133D02*
X156077972Y-87088323D01*
X155863686Y-87278800D02*
X155816067Y-87302609D01*
X155816067Y-87302609D02*
X155720829Y-87302609D01*
X155720829Y-87302609D02*
X155673210Y-87278800D01*
X155673210Y-87278800D02*
X155649401Y-87231180D01*
X155649401Y-87231180D02*
X155649401Y-87207371D01*
X155649401Y-87207371D02*
X155673210Y-87159752D01*
X155673210Y-87159752D02*
X155720829Y-87135942D01*
X155720829Y-87135942D02*
X155792258Y-87135942D01*
X155792258Y-87135942D02*
X155839877Y-87112133D01*
X155839877Y-87112133D02*
X155863686Y-87064514D01*
X155863686Y-87064514D02*
X155863686Y-87040704D01*
X155863686Y-87040704D02*
X155839877Y-86993085D01*
X155839877Y-86993085D02*
X155792258Y-86969276D01*
X155792258Y-86969276D02*
X155720829Y-86969276D01*
X155720829Y-86969276D02*
X155673210Y-86993085D01*
X155435115Y-87302609D02*
X155435115Y-86802609D01*
X155220829Y-87302609D02*
X155220829Y-87040704D01*
X155220829Y-87040704D02*
X155244639Y-86993085D01*
X155244639Y-86993085D02*
X155292258Y-86969276D01*
X155292258Y-86969276D02*
X155363686Y-86969276D01*
X155363686Y-86969276D02*
X155411305Y-86993085D01*
X155411305Y-86993085D02*
X155435115Y-87016895D01*
X154768448Y-87302609D02*
X154768448Y-87040704D01*
X154768448Y-87040704D02*
X154792258Y-86993085D01*
X154792258Y-86993085D02*
X154839877Y-86969276D01*
X154839877Y-86969276D02*
X154935115Y-86969276D01*
X154935115Y-86969276D02*
X154982734Y-86993085D01*
X154768448Y-87278800D02*
X154816067Y-87302609D01*
X154816067Y-87302609D02*
X154935115Y-87302609D01*
X154935115Y-87302609D02*
X154982734Y-87278800D01*
X154982734Y-87278800D02*
X155006543Y-87231180D01*
X155006543Y-87231180D02*
X155006543Y-87183561D01*
X155006543Y-87183561D02*
X154982734Y-87135942D01*
X154982734Y-87135942D02*
X154935115Y-87112133D01*
X154935115Y-87112133D02*
X154816067Y-87112133D01*
X154816067Y-87112133D02*
X154768448Y-87088323D01*
X154530353Y-87302609D02*
X154530353Y-86969276D01*
X154530353Y-87016895D02*
X154506543Y-86993085D01*
X154506543Y-86993085D02*
X154458924Y-86969276D01*
X154458924Y-86969276D02*
X154387496Y-86969276D01*
X154387496Y-86969276D02*
X154339877Y-86993085D01*
X154339877Y-86993085D02*
X154316067Y-87040704D01*
X154316067Y-87040704D02*
X154316067Y-87302609D01*
X154316067Y-87040704D02*
X154292258Y-86993085D01*
X154292258Y-86993085D02*
X154244639Y-86969276D01*
X154244639Y-86969276D02*
X154173210Y-86969276D01*
X154173210Y-86969276D02*
X154125591Y-86993085D01*
X154125591Y-86993085D02*
X154101781Y-87040704D01*
X154101781Y-87040704D02*
X154101781Y-87302609D01*
X153863686Y-87302609D02*
X153863686Y-86969276D01*
X153863686Y-87064514D02*
X153839876Y-87016895D01*
X153839876Y-87016895D02*
X153816067Y-86993085D01*
X153816067Y-86993085D02*
X153768448Y-86969276D01*
X153768448Y-86969276D02*
X153720829Y-86969276D01*
X153339876Y-87302609D02*
X153339876Y-87040704D01*
X153339876Y-87040704D02*
X153363686Y-86993085D01*
X153363686Y-86993085D02*
X153411305Y-86969276D01*
X153411305Y-86969276D02*
X153506543Y-86969276D01*
X153506543Y-86969276D02*
X153554162Y-86993085D01*
X153339876Y-87278800D02*
X153387495Y-87302609D01*
X153387495Y-87302609D02*
X153506543Y-87302609D01*
X153506543Y-87302609D02*
X153554162Y-87278800D01*
X153554162Y-87278800D02*
X153577971Y-87231180D01*
X153577971Y-87231180D02*
X153577971Y-87183561D01*
X153577971Y-87183561D02*
X153554162Y-87135942D01*
X153554162Y-87135942D02*
X153506543Y-87112133D01*
X153506543Y-87112133D02*
X153387495Y-87112133D01*
X153387495Y-87112133D02*
X153339876Y-87088323D01*
X153149400Y-86969276D02*
X153030352Y-87302609D01*
X152911305Y-86969276D02*
X153030352Y-87302609D01*
X153030352Y-87302609D02*
X153077971Y-87421657D01*
X153077971Y-87421657D02*
X153101781Y-87445466D01*
X153101781Y-87445466D02*
X153149400Y-87469276D01*
X152363686Y-86778800D02*
X152792257Y-87421657D01*
X152197019Y-87302609D02*
X152197019Y-86969276D01*
X152197019Y-87064514D02*
X152173209Y-87016895D01*
X152173209Y-87016895D02*
X152149400Y-86993085D01*
X152149400Y-86993085D02*
X152101781Y-86969276D01*
X152101781Y-86969276D02*
X152054162Y-86969276D01*
X151673209Y-87302609D02*
X151673209Y-87040704D01*
X151673209Y-87040704D02*
X151697019Y-86993085D01*
X151697019Y-86993085D02*
X151744638Y-86969276D01*
X151744638Y-86969276D02*
X151839876Y-86969276D01*
X151839876Y-86969276D02*
X151887495Y-86993085D01*
X151673209Y-87278800D02*
X151720828Y-87302609D01*
X151720828Y-87302609D02*
X151839876Y-87302609D01*
X151839876Y-87302609D02*
X151887495Y-87278800D01*
X151887495Y-87278800D02*
X151911304Y-87231180D01*
X151911304Y-87231180D02*
X151911304Y-87183561D01*
X151911304Y-87183561D02*
X151887495Y-87135942D01*
X151887495Y-87135942D02*
X151839876Y-87112133D01*
X151839876Y-87112133D02*
X151720828Y-87112133D01*
X151720828Y-87112133D02*
X151673209Y-87088323D01*
X151435114Y-87302609D02*
X151435114Y-86802609D01*
X151387495Y-87112133D02*
X151244638Y-87302609D01*
X151244638Y-86969276D02*
X151435114Y-87159752D01*
X150816066Y-86969276D02*
X150816066Y-87302609D01*
X150935114Y-86778800D02*
X151054161Y-87135942D01*
X151054161Y-87135942D02*
X150744638Y-87135942D01*
X150339876Y-86802609D02*
X150435114Y-86802609D01*
X150435114Y-86802609D02*
X150482733Y-86826419D01*
X150482733Y-86826419D02*
X150506543Y-86850228D01*
X150506543Y-86850228D02*
X150554162Y-86921657D01*
X150554162Y-86921657D02*
X150577971Y-87016895D01*
X150577971Y-87016895D02*
X150577971Y-87207371D01*
X150577971Y-87207371D02*
X150554162Y-87254990D01*
X150554162Y-87254990D02*
X150530352Y-87278800D01*
X150530352Y-87278800D02*
X150482733Y-87302609D01*
X150482733Y-87302609D02*
X150387495Y-87302609D01*
X150387495Y-87302609D02*
X150339876Y-87278800D01*
X150339876Y-87278800D02*
X150316067Y-87254990D01*
X150316067Y-87254990D02*
X150292257Y-87207371D01*
X150292257Y-87207371D02*
X150292257Y-87088323D01*
X150292257Y-87088323D02*
X150316067Y-87040704D01*
X150316067Y-87040704D02*
X150339876Y-87016895D01*
X150339876Y-87016895D02*
X150387495Y-86993085D01*
X150387495Y-86993085D02*
X150482733Y-86993085D01*
X150482733Y-86993085D02*
X150530352Y-87016895D01*
X150530352Y-87016895D02*
X150554162Y-87040704D01*
X150554162Y-87040704D02*
X150577971Y-87088323D01*
X150125591Y-86802609D02*
X149816067Y-86802609D01*
X149816067Y-86802609D02*
X149982734Y-86993085D01*
X149982734Y-86993085D02*
X149911305Y-86993085D01*
X149911305Y-86993085D02*
X149863686Y-87016895D01*
X149863686Y-87016895D02*
X149839877Y-87040704D01*
X149839877Y-87040704D02*
X149816067Y-87088323D01*
X149816067Y-87088323D02*
X149816067Y-87207371D01*
X149816067Y-87207371D02*
X149839877Y-87254990D01*
X149839877Y-87254990D02*
X149863686Y-87278800D01*
X149863686Y-87278800D02*
X149911305Y-87302609D01*
X149911305Y-87302609D02*
X150054162Y-87302609D01*
X150054162Y-87302609D02*
X150101781Y-87278800D01*
X150101781Y-87278800D02*
X150125591Y-87254990D01*
X149506544Y-86802609D02*
X149458925Y-86802609D01*
X149458925Y-86802609D02*
X149411306Y-86826419D01*
X149411306Y-86826419D02*
X149387496Y-86850228D01*
X149387496Y-86850228D02*
X149363687Y-86897847D01*
X149363687Y-86897847D02*
X149339877Y-86993085D01*
X149339877Y-86993085D02*
X149339877Y-87112133D01*
X149339877Y-87112133D02*
X149363687Y-87207371D01*
X149363687Y-87207371D02*
X149387496Y-87254990D01*
X149387496Y-87254990D02*
X149411306Y-87278800D01*
X149411306Y-87278800D02*
X149458925Y-87302609D01*
X149458925Y-87302609D02*
X149506544Y-87302609D01*
X149506544Y-87302609D02*
X149554163Y-87278800D01*
X149554163Y-87278800D02*
X149577972Y-87254990D01*
X149577972Y-87254990D02*
X149601782Y-87207371D01*
X149601782Y-87207371D02*
X149625591Y-87112133D01*
X149625591Y-87112133D02*
X149625591Y-86993085D01*
X149625591Y-86993085D02*
X149601782Y-86897847D01*
X149601782Y-86897847D02*
X149577972Y-86850228D01*
X149577972Y-86850228D02*
X149554163Y-86826419D01*
X149554163Y-86826419D02*
X149506544Y-86802609D01*
X149244640Y-87350228D02*
X148863687Y-87350228D01*
X148744640Y-87302609D02*
X148744640Y-86969276D01*
X148744640Y-86802609D02*
X148768449Y-86826419D01*
X148768449Y-86826419D02*
X148744640Y-86850228D01*
X148744640Y-86850228D02*
X148720830Y-86826419D01*
X148720830Y-86826419D02*
X148744640Y-86802609D01*
X148744640Y-86802609D02*
X148744640Y-86850228D01*
X148506545Y-86969276D02*
X148506545Y-87302609D01*
X148506545Y-87016895D02*
X148482735Y-86993085D01*
X148482735Y-86993085D02*
X148435116Y-86969276D01*
X148435116Y-86969276D02*
X148363688Y-86969276D01*
X148363688Y-86969276D02*
X148316069Y-86993085D01*
X148316069Y-86993085D02*
X148292259Y-87040704D01*
X148292259Y-87040704D02*
X148292259Y-87302609D01*
X148125592Y-86969276D02*
X147935116Y-86969276D01*
X148054164Y-86802609D02*
X148054164Y-87231180D01*
X148054164Y-87231180D02*
X148030354Y-87278800D01*
X148030354Y-87278800D02*
X147982735Y-87302609D01*
X147982735Y-87302609D02*
X147935116Y-87302609D01*
X147577974Y-87278800D02*
X147625593Y-87302609D01*
X147625593Y-87302609D02*
X147720831Y-87302609D01*
X147720831Y-87302609D02*
X147768450Y-87278800D01*
X147768450Y-87278800D02*
X147792259Y-87231180D01*
X147792259Y-87231180D02*
X147792259Y-87040704D01*
X147792259Y-87040704D02*
X147768450Y-86993085D01*
X147768450Y-86993085D02*
X147720831Y-86969276D01*
X147720831Y-86969276D02*
X147625593Y-86969276D01*
X147625593Y-86969276D02*
X147577974Y-86993085D01*
X147577974Y-86993085D02*
X147554164Y-87040704D01*
X147554164Y-87040704D02*
X147554164Y-87088323D01*
X147554164Y-87088323D02*
X147792259Y-87135942D01*
X147339879Y-87302609D02*
X147339879Y-86969276D01*
X147339879Y-87064514D02*
X147316069Y-87016895D01*
X147316069Y-87016895D02*
X147292260Y-86993085D01*
X147292260Y-86993085D02*
X147244641Y-86969276D01*
X147244641Y-86969276D02*
X147197022Y-86969276D01*
X147101783Y-86969276D02*
X146911307Y-86969276D01*
X147030355Y-87302609D02*
X147030355Y-86874038D01*
X147030355Y-86874038D02*
X147006545Y-86826419D01*
X147006545Y-86826419D02*
X146958926Y-86802609D01*
X146958926Y-86802609D02*
X146911307Y-86802609D01*
X146530355Y-87302609D02*
X146530355Y-87040704D01*
X146530355Y-87040704D02*
X146554165Y-86993085D01*
X146554165Y-86993085D02*
X146601784Y-86969276D01*
X146601784Y-86969276D02*
X146697022Y-86969276D01*
X146697022Y-86969276D02*
X146744641Y-86993085D01*
X146530355Y-87278800D02*
X146577974Y-87302609D01*
X146577974Y-87302609D02*
X146697022Y-87302609D01*
X146697022Y-87302609D02*
X146744641Y-87278800D01*
X146744641Y-87278800D02*
X146768450Y-87231180D01*
X146768450Y-87231180D02*
X146768450Y-87183561D01*
X146768450Y-87183561D02*
X146744641Y-87135942D01*
X146744641Y-87135942D02*
X146697022Y-87112133D01*
X146697022Y-87112133D02*
X146577974Y-87112133D01*
X146577974Y-87112133D02*
X146530355Y-87088323D01*
X146077974Y-87278800D02*
X146125593Y-87302609D01*
X146125593Y-87302609D02*
X146220831Y-87302609D01*
X146220831Y-87302609D02*
X146268450Y-87278800D01*
X146268450Y-87278800D02*
X146292260Y-87254990D01*
X146292260Y-87254990D02*
X146316069Y-87207371D01*
X146316069Y-87207371D02*
X146316069Y-87064514D01*
X146316069Y-87064514D02*
X146292260Y-87016895D01*
X146292260Y-87016895D02*
X146268450Y-86993085D01*
X146268450Y-86993085D02*
X146220831Y-86969276D01*
X146220831Y-86969276D02*
X146125593Y-86969276D01*
X146125593Y-86969276D02*
X146077974Y-86993085D01*
X145673213Y-87278800D02*
X145720832Y-87302609D01*
X145720832Y-87302609D02*
X145816070Y-87302609D01*
X145816070Y-87302609D02*
X145863689Y-87278800D01*
X145863689Y-87278800D02*
X145887498Y-87231180D01*
X145887498Y-87231180D02*
X145887498Y-87040704D01*
X145887498Y-87040704D02*
X145863689Y-86993085D01*
X145863689Y-86993085D02*
X145816070Y-86969276D01*
X145816070Y-86969276D02*
X145720832Y-86969276D01*
X145720832Y-86969276D02*
X145673213Y-86993085D01*
X145673213Y-86993085D02*
X145649403Y-87040704D01*
X145649403Y-87040704D02*
X145649403Y-87088323D01*
X145649403Y-87088323D02*
X145887498Y-87135942D01*
D11*
%TO.C,REF\u002A\u002A*%
X152569829Y-83655897D02*
X152629753Y-83678155D01*
X152654673Y-83694880D01*
X152679910Y-83718843D01*
X152697912Y-83749326D01*
X152709858Y-83790823D01*
X152716930Y-83847832D01*
X152720308Y-83924847D01*
X152721171Y-84026365D01*
X152721002Y-84078827D01*
X152720153Y-84150515D01*
X152718711Y-84207725D01*
X152716814Y-84245609D01*
X152714597Y-84259314D01*
X152700172Y-84254781D01*
X152671054Y-84242470D01*
X152670181Y-84242072D01*
X152655060Y-84234156D01*
X152644891Y-84223295D01*
X152638691Y-84204271D01*
X152635478Y-84171869D01*
X152634270Y-84120871D01*
X152634086Y-84046061D01*
X152633714Y-83998604D01*
X152629750Y-83909415D01*
X152620673Y-83844087D01*
X152605524Y-83799193D01*
X152583345Y-83771307D01*
X152553175Y-83757003D01*
X152548990Y-83756006D01*
X152492480Y-83755227D01*
X152448410Y-83780544D01*
X152417972Y-83831302D01*
X152412544Y-83845975D01*
X152400171Y-83878449D01*
X152393905Y-83893372D01*
X152381036Y-83891316D01*
X152352933Y-83880157D01*
X152326721Y-83861727D01*
X152314771Y-83826898D01*
X152318336Y-83801951D01*
X152340235Y-83751347D01*
X152375644Y-83703928D01*
X152417052Y-83671134D01*
X152434400Y-83663552D01*
X152500089Y-83650876D01*
X152569829Y-83655897D01*
G36*
X152569829Y-83655897D02*
G01*
X152629753Y-83678155D01*
X152654673Y-83694880D01*
X152679910Y-83718843D01*
X152697912Y-83749326D01*
X152709858Y-83790823D01*
X152716930Y-83847832D01*
X152720308Y-83924847D01*
X152721171Y-84026365D01*
X152721002Y-84078827D01*
X152720153Y-84150515D01*
X152718711Y-84207725D01*
X152716814Y-84245609D01*
X152714597Y-84259314D01*
X152700172Y-84254781D01*
X152671054Y-84242470D01*
X152670181Y-84242072D01*
X152655060Y-84234156D01*
X152644891Y-84223295D01*
X152638691Y-84204271D01*
X152635478Y-84171869D01*
X152634270Y-84120871D01*
X152634086Y-84046061D01*
X152633714Y-83998604D01*
X152629750Y-83909415D01*
X152620673Y-83844087D01*
X152605524Y-83799193D01*
X152583345Y-83771307D01*
X152553175Y-83757003D01*
X152548990Y-83756006D01*
X152492480Y-83755227D01*
X152448410Y-83780544D01*
X152417972Y-83831302D01*
X152412544Y-83845975D01*
X152400171Y-83878449D01*
X152393905Y-83893372D01*
X152381036Y-83891316D01*
X152352933Y-83880157D01*
X152326721Y-83861727D01*
X152314771Y-83826898D01*
X152318336Y-83801951D01*
X152340235Y-83751347D01*
X152375644Y-83703928D01*
X152417052Y-83671134D01*
X152434400Y-83663552D01*
X152500089Y-83650876D01*
X152569829Y-83655897D01*
G37*
X156518020Y-83622622D02*
X156585810Y-83654480D01*
X156641366Y-83709570D01*
X156652881Y-83726816D01*
X156662432Y-83746362D01*
X156669206Y-83770998D01*
X156673819Y-83805511D01*
X156676888Y-83854689D01*
X156679029Y-83923319D01*
X156680859Y-84016189D01*
X156685404Y-84273807D01*
X156647225Y-84259291D01*
X156612268Y-84245956D01*
X156586097Y-84233123D01*
X156569013Y-84216580D01*
X156559086Y-84191265D01*
X156554386Y-84152116D01*
X156552982Y-84094068D01*
X156552943Y-84012061D01*
X156552744Y-83946695D01*
X156551559Y-83883973D01*
X156548729Y-83841134D01*
X156543609Y-83813020D01*
X156535553Y-83794475D01*
X156523914Y-83780343D01*
X156495303Y-83760400D01*
X156447239Y-83752883D01*
X156399688Y-83771879D01*
X156396550Y-83774311D01*
X156386769Y-83785548D01*
X156379553Y-83803570D01*
X156374299Y-83832826D01*
X156370402Y-83877762D01*
X156367256Y-83942828D01*
X156364257Y-84032470D01*
X156357000Y-84272497D01*
X156295314Y-84244844D01*
X156233629Y-84217191D01*
X156233629Y-83998046D01*
X156233884Y-83938511D01*
X156236086Y-83855692D01*
X156241661Y-83794027D01*
X156251941Y-83748548D01*
X156268258Y-83714284D01*
X156291943Y-83686266D01*
X156324328Y-83659523D01*
X156370907Y-83632580D01*
X156444287Y-83614991D01*
X156518020Y-83622622D01*
G36*
X156518020Y-83622622D02*
G01*
X156585810Y-83654480D01*
X156641366Y-83709570D01*
X156652881Y-83726816D01*
X156662432Y-83746362D01*
X156669206Y-83770998D01*
X156673819Y-83805511D01*
X156676888Y-83854689D01*
X156679029Y-83923319D01*
X156680859Y-84016189D01*
X156685404Y-84273807D01*
X156647225Y-84259291D01*
X156612268Y-84245956D01*
X156586097Y-84233123D01*
X156569013Y-84216580D01*
X156559086Y-84191265D01*
X156554386Y-84152116D01*
X156552982Y-84094068D01*
X156552943Y-84012061D01*
X156552744Y-83946695D01*
X156551559Y-83883973D01*
X156548729Y-83841134D01*
X156543609Y-83813020D01*
X156535553Y-83794475D01*
X156523914Y-83780343D01*
X156495303Y-83760400D01*
X156447239Y-83752883D01*
X156399688Y-83771879D01*
X156396550Y-83774311D01*
X156386769Y-83785548D01*
X156379553Y-83803570D01*
X156374299Y-83832826D01*
X156370402Y-83877762D01*
X156367256Y-83942828D01*
X156364257Y-84032470D01*
X156357000Y-84272497D01*
X156295314Y-84244844D01*
X156233629Y-84217191D01*
X156233629Y-83998046D01*
X156233884Y-83938511D01*
X156236086Y-83855692D01*
X156241661Y-83794027D01*
X156251941Y-83748548D01*
X156268258Y-83714284D01*
X156291943Y-83686266D01*
X156324328Y-83659523D01*
X156370907Y-83632580D01*
X156444287Y-83614991D01*
X156518020Y-83622622D01*
G37*
X154694691Y-83671267D02*
X154699273Y-83673803D01*
X154736704Y-83702857D01*
X154770170Y-83740210D01*
X154776007Y-83748652D01*
X154787165Y-83768353D01*
X154795136Y-83791735D01*
X154800618Y-83823867D01*
X154804307Y-83869819D01*
X154806899Y-83934659D01*
X154809092Y-84023457D01*
X154809402Y-84038469D01*
X154810400Y-84135799D01*
X154808994Y-84204734D01*
X154805164Y-84245748D01*
X154798889Y-84259314D01*
X154779898Y-84255252D01*
X154747638Y-84242944D01*
X154740041Y-84239345D01*
X154728176Y-84231198D01*
X154719994Y-84217804D01*
X154714643Y-84194408D01*
X154711269Y-84156255D01*
X154709019Y-84098590D01*
X154707040Y-84016657D01*
X154706498Y-83992707D01*
X154704403Y-83917066D01*
X154701683Y-83864128D01*
X154697515Y-83828875D01*
X154691079Y-83806287D01*
X154681550Y-83791344D01*
X154668106Y-83779027D01*
X154628305Y-83757434D01*
X154579341Y-83753276D01*
X154535529Y-83769799D01*
X154504008Y-83804010D01*
X154491914Y-83852914D01*
X154491578Y-83866207D01*
X154484972Y-83890272D01*
X154465470Y-83893944D01*
X154427283Y-83879613D01*
X154418438Y-83875017D01*
X154394534Y-83847986D01*
X154394061Y-83807794D01*
X154416836Y-83752209D01*
X154437727Y-83721917D01*
X154491142Y-83678884D01*
X154557074Y-83654555D01*
X154627574Y-83651243D01*
X154694691Y-83671267D01*
G36*
X154694691Y-83671267D02*
G01*
X154699273Y-83673803D01*
X154736704Y-83702857D01*
X154770170Y-83740210D01*
X154776007Y-83748652D01*
X154787165Y-83768353D01*
X154795136Y-83791735D01*
X154800618Y-83823867D01*
X154804307Y-83869819D01*
X154806899Y-83934659D01*
X154809092Y-84023457D01*
X154809402Y-84038469D01*
X154810400Y-84135799D01*
X154808994Y-84204734D01*
X154805164Y-84245748D01*
X154798889Y-84259314D01*
X154779898Y-84255252D01*
X154747638Y-84242944D01*
X154740041Y-84239345D01*
X154728176Y-84231198D01*
X154719994Y-84217804D01*
X154714643Y-84194408D01*
X154711269Y-84156255D01*
X154709019Y-84098590D01*
X154707040Y-84016657D01*
X154706498Y-83992707D01*
X154704403Y-83917066D01*
X154701683Y-83864128D01*
X154697515Y-83828875D01*
X154691079Y-83806287D01*
X154681550Y-83791344D01*
X154668106Y-83779027D01*
X154628305Y-83757434D01*
X154579341Y-83753276D01*
X154535529Y-83769799D01*
X154504008Y-83804010D01*
X154491914Y-83852914D01*
X154491578Y-83866207D01*
X154484972Y-83890272D01*
X154465470Y-83893944D01*
X154427283Y-83879613D01*
X154418438Y-83875017D01*
X154394534Y-83847986D01*
X154394061Y-83807794D01*
X154416836Y-83752209D01*
X154437727Y-83721917D01*
X154491142Y-83678884D01*
X154557074Y-83654555D01*
X154627574Y-83651243D01*
X154694691Y-83671267D01*
G37*
X155765543Y-83454244D02*
X155812714Y-83474142D01*
X155812714Y-83871309D01*
X155812519Y-83974298D01*
X155811998Y-84066941D01*
X155811199Y-84145500D01*
X155810172Y-84206239D01*
X155808963Y-84245423D01*
X155807623Y-84259314D01*
X155807099Y-84259268D01*
X155789287Y-84254220D01*
X155756823Y-84243380D01*
X155711114Y-84227446D01*
X155711114Y-84022973D01*
X155710824Y-83942632D01*
X155709474Y-83884362D01*
X155706369Y-83844709D01*
X155700812Y-83818418D01*
X155692107Y-83800236D01*
X155679556Y-83784907D01*
X155670999Y-83776755D01*
X155624728Y-83754175D01*
X155573728Y-83756175D01*
X155526993Y-83782873D01*
X155520189Y-83789498D01*
X155509293Y-83803256D01*
X155501836Y-83821442D01*
X155497169Y-83848977D01*
X155494642Y-83890781D01*
X155493602Y-83951773D01*
X155493400Y-84036873D01*
X155493303Y-84080034D01*
X155492674Y-84151024D01*
X155491556Y-84207876D01*
X155490063Y-84245628D01*
X155488309Y-84259314D01*
X155487785Y-84259268D01*
X155469973Y-84254220D01*
X155437509Y-84243380D01*
X155391800Y-84227446D01*
X155391823Y-84022037D01*
X155391857Y-84003751D01*
X155393778Y-83908426D01*
X155399678Y-83836343D01*
X155411001Y-83782613D01*
X155429187Y-83742349D01*
X155455679Y-83710661D01*
X155491918Y-83682661D01*
X155527263Y-83665133D01*
X155583773Y-83651585D01*
X155639356Y-83650815D01*
X155682086Y-83663995D01*
X155685298Y-83665815D01*
X155695205Y-83665620D01*
X155701975Y-83650372D01*
X155706861Y-83615413D01*
X155711114Y-83556089D01*
X155718371Y-83434347D01*
X155765543Y-83454244D01*
G36*
X155765543Y-83454244D02*
G01*
X155812714Y-83474142D01*
X155812714Y-83871309D01*
X155812519Y-83974298D01*
X155811998Y-84066941D01*
X155811199Y-84145500D01*
X155810172Y-84206239D01*
X155808963Y-84245423D01*
X155807623Y-84259314D01*
X155807099Y-84259268D01*
X155789287Y-84254220D01*
X155756823Y-84243380D01*
X155711114Y-84227446D01*
X155711114Y-84022973D01*
X155710824Y-83942632D01*
X155709474Y-83884362D01*
X155706369Y-83844709D01*
X155700812Y-83818418D01*
X155692107Y-83800236D01*
X155679556Y-83784907D01*
X155670999Y-83776755D01*
X155624728Y-83754175D01*
X155573728Y-83756175D01*
X155526993Y-83782873D01*
X155520189Y-83789498D01*
X155509293Y-83803256D01*
X155501836Y-83821442D01*
X155497169Y-83848977D01*
X155494642Y-83890781D01*
X155493602Y-83951773D01*
X155493400Y-84036873D01*
X155493303Y-84080034D01*
X155492674Y-84151024D01*
X155491556Y-84207876D01*
X155490063Y-84245628D01*
X155488309Y-84259314D01*
X155487785Y-84259268D01*
X155469973Y-84254220D01*
X155437509Y-84243380D01*
X155391800Y-84227446D01*
X155391823Y-84022037D01*
X155391857Y-84003751D01*
X155393778Y-83908426D01*
X155399678Y-83836343D01*
X155411001Y-83782613D01*
X155429187Y-83742349D01*
X155455679Y-83710661D01*
X155491918Y-83682661D01*
X155527263Y-83665133D01*
X155583773Y-83651585D01*
X155639356Y-83650815D01*
X155682086Y-83663995D01*
X155685298Y-83665815D01*
X155695205Y-83665620D01*
X155701975Y-83650372D01*
X155706861Y-83615413D01*
X155711114Y-83556089D01*
X155718371Y-83434347D01*
X155765543Y-83454244D01*
G37*
X153740941Y-83654082D02*
X153772774Y-83666558D01*
X153809743Y-83683402D01*
X153809743Y-84169996D01*
X153763812Y-84215927D01*
X153753320Y-84226227D01*
X153724255Y-84249120D01*
X153694943Y-84256535D01*
X153651326Y-84253121D01*
X153633568Y-84250914D01*
X153587767Y-84246245D01*
X153555743Y-84244385D01*
X153546244Y-84244669D01*
X153507274Y-84247748D01*
X153460160Y-84253121D01*
X153445085Y-84254968D01*
X153407110Y-84255693D01*
X153379325Y-84244229D01*
X153347674Y-84215927D01*
X153301743Y-84169996D01*
X153301743Y-83909855D01*
X153302101Y-83832980D01*
X153303216Y-83759686D01*
X153304952Y-83701650D01*
X153307167Y-83663463D01*
X153309721Y-83649714D01*
X153310256Y-83649751D01*
X153328808Y-83656593D01*
X153360153Y-83671668D01*
X153402608Y-83693622D01*
X153406604Y-83922040D01*
X153410600Y-84150457D01*
X153497686Y-84150457D01*
X153501657Y-83900086D01*
X153502916Y-83832027D01*
X153504718Y-83759282D01*
X153506671Y-83701530D01*
X153508612Y-83663448D01*
X153510377Y-83649714D01*
X153510885Y-83649762D01*
X153528482Y-83654815D01*
X153560834Y-83665649D01*
X153606543Y-83681583D01*
X153606765Y-83901506D01*
X153606988Y-83939709D01*
X153608531Y-84013946D01*
X153611292Y-84075945D01*
X153614977Y-84120108D01*
X153619292Y-84140841D01*
X153634732Y-84151931D01*
X153666241Y-84155356D01*
X153700886Y-84150457D01*
X153704857Y-83900086D01*
X153706278Y-83836463D01*
X153709225Y-83761156D01*
X153713079Y-83702086D01*
X153717542Y-83663518D01*
X153722317Y-83649714D01*
X153740941Y-83654082D01*
G36*
X153740941Y-83654082D02*
G01*
X153772774Y-83666558D01*
X153809743Y-83683402D01*
X153809743Y-84169996D01*
X153763812Y-84215927D01*
X153753320Y-84226227D01*
X153724255Y-84249120D01*
X153694943Y-84256535D01*
X153651326Y-84253121D01*
X153633568Y-84250914D01*
X153587767Y-84246245D01*
X153555743Y-84244385D01*
X153546244Y-84244669D01*
X153507274Y-84247748D01*
X153460160Y-84253121D01*
X153445085Y-84254968D01*
X153407110Y-84255693D01*
X153379325Y-84244229D01*
X153347674Y-84215927D01*
X153301743Y-84169996D01*
X153301743Y-83909855D01*
X153302101Y-83832980D01*
X153303216Y-83759686D01*
X153304952Y-83701650D01*
X153307167Y-83663463D01*
X153309721Y-83649714D01*
X153310256Y-83649751D01*
X153328808Y-83656593D01*
X153360153Y-83671668D01*
X153402608Y-83693622D01*
X153406604Y-83922040D01*
X153410600Y-84150457D01*
X153497686Y-84150457D01*
X153501657Y-83900086D01*
X153502916Y-83832027D01*
X153504718Y-83759282D01*
X153506671Y-83701530D01*
X153508612Y-83663448D01*
X153510377Y-83649714D01*
X153510885Y-83649762D01*
X153528482Y-83654815D01*
X153560834Y-83665649D01*
X153606543Y-83681583D01*
X153606765Y-83901506D01*
X153606988Y-83939709D01*
X153608531Y-84013946D01*
X153611292Y-84075945D01*
X153614977Y-84120108D01*
X153619292Y-84140841D01*
X153634732Y-84151931D01*
X153666241Y-84155356D01*
X153700886Y-84150457D01*
X153704857Y-83900086D01*
X153706278Y-83836463D01*
X153709225Y-83761156D01*
X153713079Y-83702086D01*
X153717542Y-83663518D01*
X153722317Y-83649714D01*
X153740941Y-83654082D01*
G37*
X158352714Y-83940000D02*
X158352701Y-83955735D01*
X158351914Y-84025919D01*
X158349210Y-84074822D01*
X158343606Y-84108978D01*
X158334119Y-84134924D01*
X158319768Y-84159197D01*
X158316237Y-84164233D01*
X158278878Y-84203943D01*
X158236311Y-84233892D01*
X158214452Y-84243610D01*
X158135908Y-84259820D01*
X158058231Y-84249335D01*
X157986645Y-84213507D01*
X157926374Y-84153687D01*
X157921286Y-84145673D01*
X157904730Y-84099142D01*
X157893573Y-84034352D01*
X157888160Y-83959527D01*
X157888768Y-83890313D01*
X158035248Y-83890313D01*
X158036402Y-83986199D01*
X158036866Y-83992369D01*
X158043629Y-84045278D01*
X158055671Y-84078829D01*
X158076005Y-84101816D01*
X158110097Y-84123348D01*
X158143814Y-84124480D01*
X158178543Y-84099657D01*
X158184584Y-84093125D01*
X158196417Y-84073579D01*
X158203404Y-84045186D01*
X158206727Y-84001230D01*
X158207571Y-83934992D01*
X158206125Y-83872950D01*
X158198907Y-83813842D01*
X158184006Y-83776486D01*
X158159636Y-83756952D01*
X158124008Y-83751314D01*
X158110440Y-83752435D01*
X158072430Y-83772994D01*
X158047312Y-83819099D01*
X158035248Y-83890313D01*
X157888768Y-83890313D01*
X157888833Y-83882896D01*
X157895937Y-83812682D01*
X157909815Y-83757112D01*
X157927649Y-83720101D01*
X157977855Y-83662533D01*
X158045885Y-83626762D01*
X158129158Y-83614465D01*
X158151398Y-83615131D01*
X158216891Y-83628747D01*
X158270687Y-83663049D01*
X158320057Y-83722138D01*
X158322995Y-83726522D01*
X158336287Y-83750099D01*
X158344932Y-83776749D01*
X158349904Y-83812959D01*
X158352174Y-83865213D01*
X158352678Y-83934992D01*
X158352714Y-83940000D01*
G36*
X158352714Y-83940000D02*
G01*
X158352701Y-83955735D01*
X158351914Y-84025919D01*
X158349210Y-84074822D01*
X158343606Y-84108978D01*
X158334119Y-84134924D01*
X158319768Y-84159197D01*
X158316237Y-84164233D01*
X158278878Y-84203943D01*
X158236311Y-84233892D01*
X158214452Y-84243610D01*
X158135908Y-84259820D01*
X158058231Y-84249335D01*
X157986645Y-84213507D01*
X157926374Y-84153687D01*
X157921286Y-84145673D01*
X157904730Y-84099142D01*
X157893573Y-84034352D01*
X157888160Y-83959527D01*
X157888768Y-83890313D01*
X158035248Y-83890313D01*
X158036402Y-83986199D01*
X158036866Y-83992369D01*
X158043629Y-84045278D01*
X158055671Y-84078829D01*
X158076005Y-84101816D01*
X158110097Y-84123348D01*
X158143814Y-84124480D01*
X158178543Y-84099657D01*
X158184584Y-84093125D01*
X158196417Y-84073579D01*
X158203404Y-84045186D01*
X158206727Y-84001230D01*
X158207571Y-83934992D01*
X158206125Y-83872950D01*
X158198907Y-83813842D01*
X158184006Y-83776486D01*
X158159636Y-83756952D01*
X158124008Y-83751314D01*
X158110440Y-83752435D01*
X158072430Y-83772994D01*
X158047312Y-83819099D01*
X158035248Y-83890313D01*
X157888768Y-83890313D01*
X157888833Y-83882896D01*
X157895937Y-83812682D01*
X157909815Y-83757112D01*
X157927649Y-83720101D01*
X157977855Y-83662533D01*
X158045885Y-83626762D01*
X158129158Y-83614465D01*
X158151398Y-83615131D01*
X158216891Y-83628747D01*
X158270687Y-83663049D01*
X158320057Y-83722138D01*
X158322995Y-83726522D01*
X158336287Y-83750099D01*
X158344932Y-83776749D01*
X158349904Y-83812959D01*
X158352174Y-83865213D01*
X158352678Y-83934992D01*
X158352714Y-83940000D01*
G37*
X152227590Y-83957422D02*
X152227307Y-83996105D01*
X152223762Y-84072321D01*
X152214483Y-84128094D01*
X152197375Y-84169413D01*
X152170344Y-84202267D01*
X152131292Y-84232646D01*
X152106445Y-84246460D01*
X152066615Y-84255765D01*
X152010665Y-84255030D01*
X151979385Y-84252083D01*
X151941653Y-84243083D01*
X151911494Y-84223520D01*
X151876408Y-84187067D01*
X151871720Y-84181743D01*
X151840177Y-84140769D01*
X151825128Y-84105083D01*
X151821286Y-84062766D01*
X151821286Y-84000579D01*
X151864742Y-84016982D01*
X151896424Y-84036156D01*
X151923962Y-84081147D01*
X151929711Y-84095552D01*
X151961855Y-84136346D01*
X152005611Y-84156881D01*
X152053254Y-84155035D01*
X152097057Y-84128686D01*
X152112111Y-84112255D01*
X152125763Y-84087467D01*
X152121493Y-84064944D01*
X152096916Y-84041764D01*
X152049651Y-84015002D01*
X151977314Y-83981734D01*
X151828543Y-83916616D01*
X151824595Y-83852108D01*
X151826079Y-83811020D01*
X151923010Y-83811020D01*
X151930368Y-83836457D01*
X151963848Y-83863614D01*
X152024614Y-83894514D01*
X152034669Y-83898990D01*
X152082751Y-83919817D01*
X152118726Y-83934465D01*
X152135444Y-83940000D01*
X152137977Y-83935926D01*
X152138993Y-83911047D01*
X152135369Y-83871057D01*
X152126242Y-83831952D01*
X152097773Y-83782684D01*
X152056678Y-83754922D01*
X152007590Y-83751164D01*
X151955144Y-83773909D01*
X151940609Y-83785281D01*
X151923010Y-83811020D01*
X151826079Y-83811020D01*
X151826338Y-83803864D01*
X151848281Y-83742896D01*
X151875979Y-83709297D01*
X151933405Y-83671766D01*
X152001527Y-83652806D01*
X152071947Y-83654307D01*
X152136267Y-83678155D01*
X152150426Y-83687313D01*
X152182904Y-83715649D01*
X152205116Y-83751495D01*
X152218804Y-83800184D01*
X152225715Y-83867049D01*
X152226628Y-83911047D01*
X152227590Y-83957422D01*
G36*
X152227590Y-83957422D02*
G01*
X152227307Y-83996105D01*
X152223762Y-84072321D01*
X152214483Y-84128094D01*
X152197375Y-84169413D01*
X152170344Y-84202267D01*
X152131292Y-84232646D01*
X152106445Y-84246460D01*
X152066615Y-84255765D01*
X152010665Y-84255030D01*
X151979385Y-84252083D01*
X151941653Y-84243083D01*
X151911494Y-84223520D01*
X151876408Y-84187067D01*
X151871720Y-84181743D01*
X151840177Y-84140769D01*
X151825128Y-84105083D01*
X151821286Y-84062766D01*
X151821286Y-84000579D01*
X151864742Y-84016982D01*
X151896424Y-84036156D01*
X151923962Y-84081147D01*
X151929711Y-84095552D01*
X151961855Y-84136346D01*
X152005611Y-84156881D01*
X152053254Y-84155035D01*
X152097057Y-84128686D01*
X152112111Y-84112255D01*
X152125763Y-84087467D01*
X152121493Y-84064944D01*
X152096916Y-84041764D01*
X152049651Y-84015002D01*
X151977314Y-83981734D01*
X151828543Y-83916616D01*
X151824595Y-83852108D01*
X151826079Y-83811020D01*
X151923010Y-83811020D01*
X151930368Y-83836457D01*
X151963848Y-83863614D01*
X152024614Y-83894514D01*
X152034669Y-83898990D01*
X152082751Y-83919817D01*
X152118726Y-83934465D01*
X152135444Y-83940000D01*
X152137977Y-83935926D01*
X152138993Y-83911047D01*
X152135369Y-83871057D01*
X152126242Y-83831952D01*
X152097773Y-83782684D01*
X152056678Y-83754922D01*
X152007590Y-83751164D01*
X151955144Y-83773909D01*
X151940609Y-83785281D01*
X151923010Y-83811020D01*
X151826079Y-83811020D01*
X151826338Y-83803864D01*
X151848281Y-83742896D01*
X151875979Y-83709297D01*
X151933405Y-83671766D01*
X152001527Y-83652806D01*
X152071947Y-83654307D01*
X152136267Y-83678155D01*
X152150426Y-83687313D01*
X152182904Y-83715649D01*
X152205116Y-83751495D01*
X152218804Y-83800184D01*
X152225715Y-83867049D01*
X152226628Y-83911047D01*
X152227590Y-83957422D01*
G37*
X154317698Y-83954514D02*
X154316537Y-84011113D01*
X154308345Y-84088262D01*
X154290519Y-84146076D01*
X154260975Y-84190222D01*
X154217625Y-84226368D01*
X154176332Y-84247263D01*
X154106987Y-84258890D01*
X154037736Y-84246177D01*
X153975145Y-84210745D01*
X153925779Y-84154218D01*
X153919818Y-84143795D01*
X153911945Y-84125533D01*
X153906106Y-84102229D01*
X153901999Y-84069885D01*
X153899325Y-84024504D01*
X153897781Y-83962087D01*
X153897734Y-83956548D01*
X153998429Y-83956548D01*
X153998772Y-84009377D01*
X154000942Y-84057162D01*
X154006307Y-84088009D01*
X154016217Y-84108735D01*
X154032021Y-84126156D01*
X154035724Y-84129505D01*
X154083299Y-84154219D01*
X154133635Y-84151690D01*
X154180517Y-84122088D01*
X154194477Y-84106753D01*
X154206160Y-84086422D01*
X154212686Y-84058314D01*
X154215524Y-84015350D01*
X154216143Y-83950447D01*
X154215837Y-83900922D01*
X154213722Y-83852582D01*
X154208390Y-83821387D01*
X154198460Y-83800447D01*
X154182550Y-83782873D01*
X154173204Y-83774959D01*
X154124776Y-83753643D01*
X154074040Y-83756998D01*
X154029987Y-83784907D01*
X154020504Y-83795973D01*
X154008939Y-83816809D01*
X154002252Y-83845906D01*
X153999173Y-83890181D01*
X153998429Y-83956548D01*
X153897734Y-83956548D01*
X153897067Y-83878637D01*
X153896883Y-83770158D01*
X153896829Y-83433401D01*
X153944000Y-83453162D01*
X153956472Y-83458570D01*
X153976324Y-83470785D01*
X153987687Y-83489282D01*
X153993933Y-83521629D01*
X153998429Y-83575393D01*
X154002535Y-83623666D01*
X154007963Y-83655357D01*
X154015739Y-83667183D01*
X154027457Y-83664012D01*
X154057318Y-83652867D01*
X154110684Y-83650104D01*
X154168093Y-83660425D01*
X154217625Y-83682661D01*
X154244876Y-83703243D01*
X154279865Y-83743400D01*
X154302274Y-83794886D01*
X154314190Y-83863368D01*
X154317542Y-83950447D01*
X154317698Y-83954514D01*
G36*
X154317698Y-83954514D02*
G01*
X154316537Y-84011113D01*
X154308345Y-84088262D01*
X154290519Y-84146076D01*
X154260975Y-84190222D01*
X154217625Y-84226368D01*
X154176332Y-84247263D01*
X154106987Y-84258890D01*
X154037736Y-84246177D01*
X153975145Y-84210745D01*
X153925779Y-84154218D01*
X153919818Y-84143795D01*
X153911945Y-84125533D01*
X153906106Y-84102229D01*
X153901999Y-84069885D01*
X153899325Y-84024504D01*
X153897781Y-83962087D01*
X153897734Y-83956548D01*
X153998429Y-83956548D01*
X153998772Y-84009377D01*
X154000942Y-84057162D01*
X154006307Y-84088009D01*
X154016217Y-84108735D01*
X154032021Y-84126156D01*
X154035724Y-84129505D01*
X154083299Y-84154219D01*
X154133635Y-84151690D01*
X154180517Y-84122088D01*
X154194477Y-84106753D01*
X154206160Y-84086422D01*
X154212686Y-84058314D01*
X154215524Y-84015350D01*
X154216143Y-83950447D01*
X154215837Y-83900922D01*
X154213722Y-83852582D01*
X154208390Y-83821387D01*
X154198460Y-83800447D01*
X154182550Y-83782873D01*
X154173204Y-83774959D01*
X154124776Y-83753643D01*
X154074040Y-83756998D01*
X154029987Y-83784907D01*
X154020504Y-83795973D01*
X154008939Y-83816809D01*
X154002252Y-83845906D01*
X153999173Y-83890181D01*
X153998429Y-83956548D01*
X153897734Y-83956548D01*
X153897067Y-83878637D01*
X153896883Y-83770158D01*
X153896829Y-83433401D01*
X153944000Y-83453162D01*
X153956472Y-83458570D01*
X153976324Y-83470785D01*
X153987687Y-83489282D01*
X153993933Y-83521629D01*
X153998429Y-83575393D01*
X154002535Y-83623666D01*
X154007963Y-83655357D01*
X154015739Y-83667183D01*
X154027457Y-83664012D01*
X154057318Y-83652867D01*
X154110684Y-83650104D01*
X154168093Y-83660425D01*
X154217625Y-83682661D01*
X154244876Y-83703243D01*
X154279865Y-83743400D01*
X154302274Y-83794886D01*
X154314190Y-83863368D01*
X154317542Y-83950447D01*
X154317698Y-83954514D01*
G37*
X157249299Y-83898855D02*
X157244684Y-84008878D01*
X157242078Y-84032187D01*
X157222660Y-84115152D01*
X157187573Y-84178248D01*
X157134212Y-84226608D01*
X157131196Y-84228604D01*
X157063362Y-84256985D01*
X156992535Y-84259511D01*
X156924289Y-84237897D01*
X156864196Y-84193862D01*
X156817829Y-84129122D01*
X156817050Y-84127561D01*
X156801643Y-84087358D01*
X156790357Y-84041666D01*
X156784370Y-83998772D01*
X156784861Y-83966960D01*
X156793007Y-83954514D01*
X156800244Y-83955271D01*
X156834851Y-83969035D01*
X156874078Y-83994346D01*
X156907448Y-84023645D01*
X156924483Y-84049372D01*
X156942192Y-84084271D01*
X156978485Y-84116012D01*
X157020630Y-84128686D01*
X157036077Y-84125021D01*
X157066569Y-84106574D01*
X157093128Y-84080966D01*
X157104486Y-84057734D01*
X157104482Y-84057648D01*
X157091596Y-84046979D01*
X157057241Y-84027733D01*
X157006593Y-84002613D01*
X156944829Y-83974324D01*
X156944489Y-83974174D01*
X156877388Y-83944298D01*
X156832411Y-83922773D01*
X156805145Y-83906237D01*
X156791178Y-83891331D01*
X156786097Y-83874693D01*
X156785490Y-83852962D01*
X156789712Y-83811813D01*
X156933000Y-83811813D01*
X156947791Y-83824749D01*
X156984644Y-83844133D01*
X156985725Y-83844681D01*
X157029205Y-83865387D01*
X157068102Y-83881905D01*
X157092778Y-83888893D01*
X157102676Y-83879553D01*
X157104486Y-83847548D01*
X157096966Y-83807715D01*
X157070897Y-83771517D01*
X157033154Y-83752750D01*
X156991077Y-83754645D01*
X156952005Y-83780432D01*
X156936647Y-83798251D01*
X156933000Y-83811813D01*
X156789712Y-83811813D01*
X156790833Y-83800886D01*
X156817251Y-83730135D01*
X156861473Y-83674535D01*
X156918697Y-83636039D01*
X156984120Y-83616597D01*
X157052937Y-83618159D01*
X157120347Y-83642678D01*
X157181544Y-83692102D01*
X157215450Y-83741012D01*
X157239806Y-83810827D01*
X157243767Y-83847548D01*
X157249299Y-83898855D01*
G36*
X157249299Y-83898855D02*
G01*
X157244684Y-84008878D01*
X157242078Y-84032187D01*
X157222660Y-84115152D01*
X157187573Y-84178248D01*
X157134212Y-84226608D01*
X157131196Y-84228604D01*
X157063362Y-84256985D01*
X156992535Y-84259511D01*
X156924289Y-84237897D01*
X156864196Y-84193862D01*
X156817829Y-84129122D01*
X156817050Y-84127561D01*
X156801643Y-84087358D01*
X156790357Y-84041666D01*
X156784370Y-83998772D01*
X156784861Y-83966960D01*
X156793007Y-83954514D01*
X156800244Y-83955271D01*
X156834851Y-83969035D01*
X156874078Y-83994346D01*
X156907448Y-84023645D01*
X156924483Y-84049372D01*
X156942192Y-84084271D01*
X156978485Y-84116012D01*
X157020630Y-84128686D01*
X157036077Y-84125021D01*
X157066569Y-84106574D01*
X157093128Y-84080966D01*
X157104486Y-84057734D01*
X157104482Y-84057648D01*
X157091596Y-84046979D01*
X157057241Y-84027733D01*
X157006593Y-84002613D01*
X156944829Y-83974324D01*
X156944489Y-83974174D01*
X156877388Y-83944298D01*
X156832411Y-83922773D01*
X156805145Y-83906237D01*
X156791178Y-83891331D01*
X156786097Y-83874693D01*
X156785490Y-83852962D01*
X156789712Y-83811813D01*
X156933000Y-83811813D01*
X156947791Y-83824749D01*
X156984644Y-83844133D01*
X156985725Y-83844681D01*
X157029205Y-83865387D01*
X157068102Y-83881905D01*
X157092778Y-83888893D01*
X157102676Y-83879553D01*
X157104486Y-83847548D01*
X157096966Y-83807715D01*
X157070897Y-83771517D01*
X157033154Y-83752750D01*
X156991077Y-83754645D01*
X156952005Y-83780432D01*
X156936647Y-83798251D01*
X156933000Y-83811813D01*
X156789712Y-83811813D01*
X156790833Y-83800886D01*
X156817251Y-83730135D01*
X156861473Y-83674535D01*
X156918697Y-83636039D01*
X156984120Y-83616597D01*
X157052937Y-83618159D01*
X157120347Y-83642678D01*
X157181544Y-83692102D01*
X157215450Y-83741012D01*
X157239806Y-83810827D01*
X157243767Y-83847548D01*
X157249299Y-83898855D01*
G37*
X155176483Y-83665369D02*
X155226376Y-83694461D01*
X155248325Y-83717127D01*
X155290504Y-83784882D01*
X155304714Y-83858750D01*
X155304714Y-83909570D01*
X155257999Y-83889928D01*
X155225692Y-83870108D01*
X155200231Y-83828960D01*
X155197616Y-83820475D01*
X155169478Y-83777251D01*
X155127067Y-83753903D01*
X155078370Y-83752900D01*
X155031373Y-83776714D01*
X155024357Y-83782856D01*
X155000893Y-83809545D01*
X154997019Y-83832814D01*
X155014768Y-83855662D01*
X155056179Y-83881087D01*
X155123286Y-83912088D01*
X155127824Y-83914052D01*
X155202322Y-83948790D01*
X155253203Y-83979563D01*
X155284525Y-84010288D01*
X155300343Y-84044882D01*
X155304714Y-84087262D01*
X155298986Y-84134246D01*
X155270062Y-84194385D01*
X155219178Y-84237588D01*
X155182374Y-84250559D01*
X155130434Y-84257656D01*
X155079999Y-84256140D01*
X155043983Y-84245432D01*
X155040158Y-84242766D01*
X155029998Y-84224137D01*
X155037048Y-84191305D01*
X155049297Y-84165535D01*
X155068939Y-84154806D01*
X155106191Y-84155339D01*
X155157908Y-84152262D01*
X155191701Y-84131012D01*
X155203114Y-84091677D01*
X155203104Y-84090547D01*
X155196187Y-84067713D01*
X155172659Y-84046763D01*
X155126914Y-84022615D01*
X155064704Y-83993541D01*
X155023499Y-83977725D01*
X154999712Y-83978744D01*
X154988597Y-83999637D01*
X154985408Y-84043441D01*
X154985400Y-84113193D01*
X154985044Y-84156252D01*
X154983413Y-84209426D01*
X154980761Y-84245822D01*
X154977422Y-84259314D01*
X154976530Y-84259223D01*
X154957237Y-84251910D01*
X154925284Y-84236478D01*
X154881124Y-84213642D01*
X154886371Y-84007878D01*
X154886736Y-83994232D01*
X154890904Y-83898451D01*
X154898268Y-83826262D01*
X154910330Y-83772858D01*
X154928593Y-83733433D01*
X154954560Y-83703180D01*
X154989733Y-83677293D01*
X154990384Y-83676887D01*
X155047256Y-83655768D01*
X155113033Y-83652200D01*
X155176483Y-83665369D01*
G36*
X155176483Y-83665369D02*
G01*
X155226376Y-83694461D01*
X155248325Y-83717127D01*
X155290504Y-83784882D01*
X155304714Y-83858750D01*
X155304714Y-83909570D01*
X155257999Y-83889928D01*
X155225692Y-83870108D01*
X155200231Y-83828960D01*
X155197616Y-83820475D01*
X155169478Y-83777251D01*
X155127067Y-83753903D01*
X155078370Y-83752900D01*
X155031373Y-83776714D01*
X155024357Y-83782856D01*
X155000893Y-83809545D01*
X154997019Y-83832814D01*
X155014768Y-83855662D01*
X155056179Y-83881087D01*
X155123286Y-83912088D01*
X155127824Y-83914052D01*
X155202322Y-83948790D01*
X155253203Y-83979563D01*
X155284525Y-84010288D01*
X155300343Y-84044882D01*
X155304714Y-84087262D01*
X155298986Y-84134246D01*
X155270062Y-84194385D01*
X155219178Y-84237588D01*
X155182374Y-84250559D01*
X155130434Y-84257656D01*
X155079999Y-84256140D01*
X155043983Y-84245432D01*
X155040158Y-84242766D01*
X155029998Y-84224137D01*
X155037048Y-84191305D01*
X155049297Y-84165535D01*
X155068939Y-84154806D01*
X155106191Y-84155339D01*
X155157908Y-84152262D01*
X155191701Y-84131012D01*
X155203114Y-84091677D01*
X155203104Y-84090547D01*
X155196187Y-84067713D01*
X155172659Y-84046763D01*
X155126914Y-84022615D01*
X155064704Y-83993541D01*
X155023499Y-83977725D01*
X154999712Y-83978744D01*
X154988597Y-83999637D01*
X154985408Y-84043441D01*
X154985400Y-84113193D01*
X154985044Y-84156252D01*
X154983413Y-84209426D01*
X154980761Y-84245822D01*
X154977422Y-84259314D01*
X154976530Y-84259223D01*
X154957237Y-84251910D01*
X154925284Y-84236478D01*
X154881124Y-84213642D01*
X154886371Y-84007878D01*
X154886736Y-83994232D01*
X154890904Y-83898451D01*
X154898268Y-83826262D01*
X154910330Y-83772858D01*
X154928593Y-83733433D01*
X154954560Y-83703180D01*
X154989733Y-83677293D01*
X154990384Y-83676887D01*
X155047256Y-83655768D01*
X155113033Y-83652200D01*
X155176483Y-83665369D01*
G37*
X157796815Y-84006324D02*
X157798252Y-84117800D01*
X157798651Y-84150139D01*
X157799929Y-84258255D01*
X157800185Y-84340986D01*
X157798634Y-84401226D01*
X157794490Y-84441873D01*
X157786964Y-84465823D01*
X157775271Y-84475971D01*
X157758624Y-84475214D01*
X157736236Y-84466448D01*
X157707321Y-84452569D01*
X157701142Y-84449608D01*
X157675413Y-84435111D01*
X157661976Y-84417865D01*
X157656834Y-84389108D01*
X157655990Y-84340083D01*
X157655952Y-84252057D01*
X157565276Y-84252057D01*
X157509498Y-84249615D01*
X157465640Y-84239708D01*
X157429218Y-84219686D01*
X157426503Y-84217729D01*
X157389546Y-84184669D01*
X157363826Y-84144731D01*
X157347606Y-84092457D01*
X157339148Y-84022388D01*
X157337083Y-83943230D01*
X157481857Y-83943230D01*
X157481882Y-83956497D01*
X157483261Y-84016384D01*
X157487687Y-84055532D01*
X157496461Y-84080953D01*
X157510886Y-84099657D01*
X157511784Y-84100550D01*
X157547237Y-84124752D01*
X157581596Y-84122367D01*
X157620403Y-84093060D01*
X157629895Y-84083044D01*
X157643876Y-84062508D01*
X157651760Y-84035797D01*
X157655245Y-83995299D01*
X157656029Y-83933403D01*
X157655350Y-83895930D01*
X157647983Y-83827780D01*
X157631168Y-83783130D01*
X157603234Y-83758726D01*
X157562509Y-83751314D01*
X157545350Y-83752894D01*
X157515660Y-83768566D01*
X157496031Y-83803491D01*
X157485188Y-83860701D01*
X157481857Y-83943230D01*
X157337083Y-83943230D01*
X157336714Y-83929067D01*
X157337253Y-83860969D01*
X157339707Y-83809387D01*
X157345158Y-83773616D01*
X157354686Y-83746815D01*
X157369371Y-83722138D01*
X157382852Y-83703280D01*
X157431799Y-83652368D01*
X157487256Y-83624718D01*
X157556928Y-83615965D01*
X157636664Y-83624690D01*
X157705595Y-83655985D01*
X157760113Y-83711181D01*
X157764223Y-83717024D01*
X157773808Y-83732553D01*
X157781151Y-83750298D01*
X157786612Y-83774090D01*
X157790550Y-83807758D01*
X157793323Y-83855133D01*
X157795292Y-83920045D01*
X157795528Y-83933403D01*
X157796815Y-84006324D01*
G36*
X157796815Y-84006324D02*
G01*
X157798252Y-84117800D01*
X157798651Y-84150139D01*
X157799929Y-84258255D01*
X157800185Y-84340986D01*
X157798634Y-84401226D01*
X157794490Y-84441873D01*
X157786964Y-84465823D01*
X157775271Y-84475971D01*
X157758624Y-84475214D01*
X157736236Y-84466448D01*
X157707321Y-84452569D01*
X157701142Y-84449608D01*
X157675413Y-84435111D01*
X157661976Y-84417865D01*
X157656834Y-84389108D01*
X157655990Y-84340083D01*
X157655952Y-84252057D01*
X157565276Y-84252057D01*
X157509498Y-84249615D01*
X157465640Y-84239708D01*
X157429218Y-84219686D01*
X157426503Y-84217729D01*
X157389546Y-84184669D01*
X157363826Y-84144731D01*
X157347606Y-84092457D01*
X157339148Y-84022388D01*
X157337083Y-83943230D01*
X157481857Y-83943230D01*
X157481882Y-83956497D01*
X157483261Y-84016384D01*
X157487687Y-84055532D01*
X157496461Y-84080953D01*
X157510886Y-84099657D01*
X157511784Y-84100550D01*
X157547237Y-84124752D01*
X157581596Y-84122367D01*
X157620403Y-84093060D01*
X157629895Y-84083044D01*
X157643876Y-84062508D01*
X157651760Y-84035797D01*
X157655245Y-83995299D01*
X157656029Y-83933403D01*
X157655350Y-83895930D01*
X157647983Y-83827780D01*
X157631168Y-83783130D01*
X157603234Y-83758726D01*
X157562509Y-83751314D01*
X157545350Y-83752894D01*
X157515660Y-83768566D01*
X157496031Y-83803491D01*
X157485188Y-83860701D01*
X157481857Y-83943230D01*
X157337083Y-83943230D01*
X157336714Y-83929067D01*
X157337253Y-83860969D01*
X157339707Y-83809387D01*
X157345158Y-83773616D01*
X157354686Y-83746815D01*
X157369371Y-83722138D01*
X157382852Y-83703280D01*
X157431799Y-83652368D01*
X157487256Y-83624718D01*
X157556928Y-83615965D01*
X157636664Y-83624690D01*
X157705595Y-83655985D01*
X157760113Y-83711181D01*
X157764223Y-83717024D01*
X157773808Y-83732553D01*
X157781151Y-83750298D01*
X157786612Y-83774090D01*
X157790550Y-83807758D01*
X157793323Y-83855133D01*
X157795292Y-83920045D01*
X157795528Y-83933403D01*
X157796815Y-84006324D01*
G37*
X153054495Y-83651020D02*
X153085599Y-83658921D01*
X153114559Y-83678617D01*
X153151831Y-83715284D01*
X153175801Y-83741178D01*
X153200770Y-83774797D01*
X153212031Y-83806306D01*
X153214657Y-83846285D01*
X153214657Y-83911717D01*
X153170035Y-83888642D01*
X153134673Y-83860524D01*
X153110451Y-83822648D01*
X153106291Y-83812351D01*
X153074594Y-83772437D01*
X153030554Y-83752424D01*
X152982531Y-83754372D01*
X152938886Y-83780343D01*
X152920420Y-83801435D01*
X152909663Y-83828419D01*
X152921178Y-83852434D01*
X152956981Y-83876591D01*
X153019090Y-83903999D01*
X153028515Y-83907785D01*
X153085058Y-83932559D01*
X153133580Y-83956989D01*
X153164451Y-83976286D01*
X153195371Y-84010753D01*
X153215927Y-84065757D01*
X153213744Y-84124783D01*
X153189424Y-84180645D01*
X153143568Y-84226155D01*
X153106438Y-84245527D01*
X153034711Y-84259092D01*
X152994852Y-84257262D01*
X152957953Y-84247368D01*
X152943797Y-84226606D01*
X152949091Y-84192413D01*
X152950631Y-84187892D01*
X152962842Y-84163916D01*
X152983174Y-84154842D01*
X153021908Y-84155449D01*
X153049257Y-84156274D01*
X153081257Y-84149192D01*
X153103182Y-84128019D01*
X153115670Y-84101952D01*
X153117062Y-84074645D01*
X153116998Y-84074485D01*
X153100807Y-84059730D01*
X153066155Y-84038257D01*
X153021321Y-84014258D01*
X152974582Y-83991925D01*
X152934217Y-83975452D01*
X152908504Y-83969029D01*
X152904679Y-83975318D01*
X152899864Y-84004915D01*
X152896566Y-84053247D01*
X152895343Y-84114172D01*
X152895058Y-84156342D01*
X152893718Y-84209453D01*
X152891528Y-84245825D01*
X152888769Y-84259314D01*
X152874344Y-84254781D01*
X152845226Y-84242470D01*
X152808257Y-84225626D01*
X152808257Y-84009521D01*
X152808493Y-83954127D01*
X152810729Y-83870007D01*
X152816423Y-83807600D01*
X152826903Y-83762158D01*
X152843497Y-83728933D01*
X152867531Y-83703178D01*
X152900333Y-83680144D01*
X152942124Y-83661135D01*
X153019287Y-83649714D01*
X153054495Y-83651020D01*
G36*
X153054495Y-83651020D02*
G01*
X153085599Y-83658921D01*
X153114559Y-83678617D01*
X153151831Y-83715284D01*
X153175801Y-83741178D01*
X153200770Y-83774797D01*
X153212031Y-83806306D01*
X153214657Y-83846285D01*
X153214657Y-83911717D01*
X153170035Y-83888642D01*
X153134673Y-83860524D01*
X153110451Y-83822648D01*
X153106291Y-83812351D01*
X153074594Y-83772437D01*
X153030554Y-83752424D01*
X152982531Y-83754372D01*
X152938886Y-83780343D01*
X152920420Y-83801435D01*
X152909663Y-83828419D01*
X152921178Y-83852434D01*
X152956981Y-83876591D01*
X153019090Y-83903999D01*
X153028515Y-83907785D01*
X153085058Y-83932559D01*
X153133580Y-83956989D01*
X153164451Y-83976286D01*
X153195371Y-84010753D01*
X153215927Y-84065757D01*
X153213744Y-84124783D01*
X153189424Y-84180645D01*
X153143568Y-84226155D01*
X153106438Y-84245527D01*
X153034711Y-84259092D01*
X152994852Y-84257262D01*
X152957953Y-84247368D01*
X152943797Y-84226606D01*
X152949091Y-84192413D01*
X152950631Y-84187892D01*
X152962842Y-84163916D01*
X152983174Y-84154842D01*
X153021908Y-84155449D01*
X153049257Y-84156274D01*
X153081257Y-84149192D01*
X153103182Y-84128019D01*
X153115670Y-84101952D01*
X153117062Y-84074645D01*
X153116998Y-84074485D01*
X153100807Y-84059730D01*
X153066155Y-84038257D01*
X153021321Y-84014258D01*
X152974582Y-83991925D01*
X152934217Y-83975452D01*
X152908504Y-83969029D01*
X152904679Y-83975318D01*
X152899864Y-84004915D01*
X152896566Y-84053247D01*
X152895343Y-84114172D01*
X152895058Y-84156342D01*
X152893718Y-84209453D01*
X152891528Y-84245825D01*
X152888769Y-84259314D01*
X152874344Y-84254781D01*
X152845226Y-84242470D01*
X152808257Y-84225626D01*
X152808257Y-84009521D01*
X152808493Y-83954127D01*
X152810729Y-83870007D01*
X152816423Y-83807600D01*
X152826903Y-83762158D01*
X152843497Y-83728933D01*
X152867531Y-83703178D01*
X152900333Y-83680144D01*
X152942124Y-83661135D01*
X153019287Y-83649714D01*
X153054495Y-83651020D01*
G37*
X155200933Y-78947171D02*
X155276856Y-78947665D01*
X155331491Y-78948935D01*
X155368500Y-78951347D01*
X155391547Y-78955267D01*
X155404296Y-78961062D01*
X155410411Y-78969099D01*
X155413556Y-78979743D01*
X155413646Y-78980125D01*
X155418814Y-79005147D01*
X155428209Y-79053481D01*
X155440867Y-79120060D01*
X155455825Y-79199814D01*
X155472119Y-79287675D01*
X155473448Y-79294864D01*
X155489691Y-79380140D01*
X155504805Y-79455042D01*
X155517808Y-79515019D01*
X155527715Y-79555517D01*
X155533544Y-79571984D01*
X155533575Y-79572010D01*
X155551943Y-79581120D01*
X155589640Y-79596257D01*
X155638543Y-79614158D01*
X155641297Y-79615130D01*
X155703817Y-79638759D01*
X155776543Y-79668395D01*
X155844294Y-79697862D01*
X155955703Y-79748426D01*
X156202399Y-79579960D01*
X156219775Y-79568111D01*
X156294202Y-79517747D01*
X156360614Y-79473412D01*
X156415039Y-79437716D01*
X156453506Y-79413271D01*
X156472042Y-79402689D01*
X156484743Y-79405115D01*
X156513579Y-79423910D01*
X156558143Y-79461130D01*
X156619670Y-79517820D01*
X156699398Y-79595027D01*
X156706532Y-79602055D01*
X156769796Y-79665022D01*
X156825990Y-79722068D01*
X156871677Y-79769617D01*
X156903414Y-79804097D01*
X156917764Y-79821931D01*
X156917810Y-79822017D01*
X156919633Y-79835595D01*
X156912910Y-79857620D01*
X156895946Y-79891104D01*
X156867044Y-79939061D01*
X156824508Y-80004504D01*
X156766644Y-80090445D01*
X156756783Y-80104951D01*
X156706913Y-80178435D01*
X156662905Y-80243487D01*
X156627380Y-80296217D01*
X156602959Y-80332736D01*
X156592264Y-80349156D01*
X156591458Y-80352634D01*
X156596518Y-80378585D01*
X156611677Y-80420959D01*
X156634463Y-80472528D01*
X156665429Y-80539970D01*
X156700004Y-80619995D01*
X156729366Y-80692429D01*
X156736645Y-80711177D01*
X156755710Y-80759046D01*
X156769715Y-80792396D01*
X156776041Y-80804914D01*
X156783025Y-80805850D01*
X156814413Y-80811261D01*
X156865787Y-80820606D01*
X156931802Y-80832869D01*
X157007113Y-80847032D01*
X157086375Y-80862080D01*
X157164243Y-80876995D01*
X157235370Y-80890761D01*
X157294412Y-80902362D01*
X157336022Y-80910780D01*
X157354857Y-80914999D01*
X157357980Y-80916189D01*
X157365591Y-80922605D01*
X157371254Y-80936265D01*
X157375251Y-80960799D01*
X157377866Y-80999838D01*
X157379384Y-81057013D01*
X157380086Y-81135954D01*
X157380257Y-81240292D01*
X157380257Y-81557599D01*
X157304057Y-81572639D01*
X157294840Y-81574442D01*
X157245891Y-81583780D01*
X157178205Y-81596469D01*
X157099478Y-81611073D01*
X157017400Y-81626155D01*
X156985078Y-81632222D01*
X156912855Y-81646981D01*
X156852666Y-81660937D01*
X156810040Y-81672752D01*
X156790510Y-81681087D01*
X156781660Y-81694705D01*
X156765548Y-81730738D01*
X156749065Y-81777372D01*
X156743263Y-81794834D01*
X156721906Y-81852158D01*
X156694359Y-81920001D01*
X156665107Y-81987155D01*
X156649463Y-82022230D01*
X156627174Y-82074622D01*
X156611857Y-82113858D01*
X156606162Y-82133363D01*
X156606478Y-82134836D01*
X156617281Y-82155529D01*
X156641638Y-82195465D01*
X156677081Y-82250772D01*
X156721136Y-82317581D01*
X156771332Y-82392020D01*
X156936501Y-82634423D01*
X156719503Y-82851783D01*
X156698516Y-82872699D01*
X156634342Y-82935305D01*
X156576990Y-82989295D01*
X156529820Y-83031626D01*
X156496192Y-83059257D01*
X156479467Y-83069143D01*
X156461303Y-83061621D01*
X156423265Y-83040027D01*
X156369726Y-83006951D01*
X156304884Y-82964991D01*
X156232940Y-82916743D01*
X156162275Y-82869091D01*
X156098526Y-82827128D01*
X156046513Y-82793965D01*
X156010279Y-82772178D01*
X155993867Y-82764343D01*
X155992905Y-82764414D01*
X155971103Y-82772138D01*
X155932440Y-82790123D01*
X155884612Y-82814813D01*
X155884110Y-82815084D01*
X155820587Y-82846899D01*
X155777060Y-82862442D01*
X155750052Y-82862485D01*
X155736090Y-82847800D01*
X155730180Y-82833344D01*
X155714229Y-82794631D01*
X155689660Y-82735116D01*
X155657779Y-82657965D01*
X155619893Y-82566341D01*
X155577310Y-82463407D01*
X155531337Y-82352326D01*
X155489667Y-82251272D01*
X155447268Y-82147580D01*
X155409756Y-82054919D01*
X155378388Y-81976442D01*
X155354425Y-81915300D01*
X155339123Y-81874643D01*
X155333743Y-81857625D01*
X155344018Y-81842019D01*
X155372563Y-81815962D01*
X155412971Y-81785687D01*
X155509979Y-81706484D01*
X155596793Y-81605275D01*
X155660322Y-81493916D01*
X155700177Y-81375693D01*
X155715965Y-81253895D01*
X155707296Y-81131810D01*
X155673778Y-81012725D01*
X155615021Y-80899929D01*
X155530632Y-80796711D01*
X155486631Y-80756513D01*
X155381211Y-80685438D01*
X155268410Y-80639101D01*
X155151525Y-80616399D01*
X155033853Y-80616228D01*
X154918690Y-80637487D01*
X154809335Y-80679070D01*
X154709083Y-80739876D01*
X154621233Y-80818801D01*
X154549080Y-80914741D01*
X154495922Y-81026595D01*
X154465057Y-81153257D01*
X154459392Y-81214307D01*
X154467185Y-81346576D01*
X154502284Y-81472066D01*
X154563649Y-81588559D01*
X154650243Y-81693839D01*
X154761029Y-81785687D01*
X154799931Y-81814730D01*
X154829104Y-81841072D01*
X154840257Y-81857600D01*
X154835810Y-81872009D01*
X154821378Y-81910615D01*
X154798173Y-81970001D01*
X154767452Y-82047015D01*
X154730474Y-82138503D01*
X154688496Y-82241316D01*
X154642778Y-82352302D01*
X154601178Y-82452872D01*
X154558222Y-82556747D01*
X154519829Y-82649619D01*
X154487305Y-82728325D01*
X154461958Y-82789699D01*
X154445095Y-82830579D01*
X154438025Y-82847800D01*
X154437943Y-82848004D01*
X154423798Y-82862545D01*
X154396659Y-82862379D01*
X154353023Y-82846727D01*
X154289388Y-82814813D01*
X154284379Y-82812126D01*
X154237125Y-82787950D01*
X154199811Y-82770837D01*
X154180133Y-82764343D01*
X154164005Y-82772018D01*
X154127959Y-82793671D01*
X154076092Y-82826728D01*
X154012445Y-82868610D01*
X153941060Y-82916743D01*
X153870724Y-82963931D01*
X153805670Y-83006067D01*
X153751820Y-83039378D01*
X153713374Y-83061269D01*
X153694534Y-83069143D01*
X153691325Y-83068143D01*
X153668954Y-83052384D01*
X153630733Y-83019833D01*
X153580021Y-82973533D01*
X153520181Y-82916526D01*
X153454571Y-82851858D01*
X153237648Y-82634572D01*
X153406601Y-82386053D01*
X153575553Y-82137533D01*
X153524183Y-82026395D01*
X153524031Y-82026066D01*
X153493183Y-81955218D01*
X153461661Y-81876323D01*
X153436266Y-81806400D01*
X153432423Y-81795122D01*
X153413047Y-81742767D01*
X153395574Y-81702083D01*
X153383388Y-81681087D01*
X153378426Y-81678122D01*
X153348634Y-81668175D01*
X153298047Y-81655305D01*
X153232194Y-81640853D01*
X153156600Y-81626155D01*
X153133957Y-81622010D01*
X153052038Y-81606916D01*
X152975600Y-81592699D01*
X152912337Y-81580795D01*
X152869943Y-81572639D01*
X152793743Y-81557599D01*
X152793743Y-81240292D01*
X152793760Y-81201276D01*
X152794082Y-81106092D01*
X152795033Y-81035055D01*
X152796896Y-80984534D01*
X152799955Y-80950898D01*
X152804494Y-80930518D01*
X152810795Y-80919762D01*
X152819143Y-80914999D01*
X152827224Y-80913070D01*
X152860172Y-80906245D01*
X152912736Y-80895822D01*
X152979569Y-80882818D01*
X153055328Y-80868249D01*
X153134665Y-80853133D01*
X153212237Y-80838485D01*
X153282698Y-80825323D01*
X153340702Y-80814663D01*
X153380904Y-80807521D01*
X153397959Y-80804914D01*
X153399112Y-80803341D01*
X153408385Y-80782919D01*
X153424432Y-80743845D01*
X153444635Y-80692429D01*
X153472672Y-80623153D01*
X153507186Y-80543090D01*
X153539538Y-80472528D01*
X153546952Y-80456689D01*
X153567755Y-80407093D01*
X153580219Y-80368838D01*
X153581863Y-80349156D01*
X153581015Y-80347762D01*
X153567548Y-80327220D01*
X153540850Y-80287316D01*
X153503539Y-80231940D01*
X153458234Y-80164977D01*
X153407552Y-80090317D01*
X153350445Y-80005492D01*
X153307607Y-79939600D01*
X153278460Y-79891278D01*
X153261317Y-79857533D01*
X153254495Y-79835372D01*
X153256306Y-79821802D01*
X153256915Y-79820784D01*
X153273297Y-79801010D01*
X153306695Y-79764975D01*
X153353671Y-79716251D01*
X153410786Y-79658412D01*
X153474603Y-79595027D01*
X153540802Y-79530705D01*
X153605648Y-79470247D01*
X153653299Y-79429455D01*
X153684990Y-79407284D01*
X153701958Y-79402689D01*
X153704175Y-79403721D01*
X153727524Y-79417637D01*
X153769912Y-79444830D01*
X153827369Y-79482689D01*
X153895923Y-79528603D01*
X153971601Y-79579960D01*
X154218298Y-79748426D01*
X154329706Y-79697862D01*
X154332943Y-79696397D01*
X154401343Y-79666765D01*
X154473907Y-79637293D01*
X154535457Y-79614158D01*
X154535729Y-79614062D01*
X154584595Y-79596167D01*
X154622212Y-79581053D01*
X154640457Y-79571984D01*
X154640752Y-79571655D01*
X154646946Y-79553082D01*
X154657139Y-79510845D01*
X154670348Y-79449496D01*
X154685590Y-79373589D01*
X154701881Y-79287675D01*
X154702449Y-79284596D01*
X154718713Y-79196928D01*
X154733608Y-79117541D01*
X154746171Y-79051501D01*
X154755438Y-79003879D01*
X154760444Y-78979743D01*
X154760764Y-78978405D01*
X154764060Y-78968073D01*
X154770738Y-78960306D01*
X154784462Y-78954740D01*
X154808895Y-78951007D01*
X154847702Y-78948742D01*
X154904546Y-78947578D01*
X154983090Y-78947148D01*
X155087000Y-78947086D01*
X155100056Y-78947086D01*
X155200933Y-78947171D01*
G36*
X155200933Y-78947171D02*
G01*
X155276856Y-78947665D01*
X155331491Y-78948935D01*
X155368500Y-78951347D01*
X155391547Y-78955267D01*
X155404296Y-78961062D01*
X155410411Y-78969099D01*
X155413556Y-78979743D01*
X155413646Y-78980125D01*
X155418814Y-79005147D01*
X155428209Y-79053481D01*
X155440867Y-79120060D01*
X155455825Y-79199814D01*
X155472119Y-79287675D01*
X155473448Y-79294864D01*
X155489691Y-79380140D01*
X155504805Y-79455042D01*
X155517808Y-79515019D01*
X155527715Y-79555517D01*
X155533544Y-79571984D01*
X155533575Y-79572010D01*
X155551943Y-79581120D01*
X155589640Y-79596257D01*
X155638543Y-79614158D01*
X155641297Y-79615130D01*
X155703817Y-79638759D01*
X155776543Y-79668395D01*
X155844294Y-79697862D01*
X155955703Y-79748426D01*
X156202399Y-79579960D01*
X156219775Y-79568111D01*
X156294202Y-79517747D01*
X156360614Y-79473412D01*
X156415039Y-79437716D01*
X156453506Y-79413271D01*
X156472042Y-79402689D01*
X156484743Y-79405115D01*
X156513579Y-79423910D01*
X156558143Y-79461130D01*
X156619670Y-79517820D01*
X156699398Y-79595027D01*
X156706532Y-79602055D01*
X156769796Y-79665022D01*
X156825990Y-79722068D01*
X156871677Y-79769617D01*
X156903414Y-79804097D01*
X156917764Y-79821931D01*
X156917810Y-79822017D01*
X156919633Y-79835595D01*
X156912910Y-79857620D01*
X156895946Y-79891104D01*
X156867044Y-79939061D01*
X156824508Y-80004504D01*
X156766644Y-80090445D01*
X156756783Y-80104951D01*
X156706913Y-80178435D01*
X156662905Y-80243487D01*
X156627380Y-80296217D01*
X156602959Y-80332736D01*
X156592264Y-80349156D01*
X156591458Y-80352634D01*
X156596518Y-80378585D01*
X156611677Y-80420959D01*
X156634463Y-80472528D01*
X156665429Y-80539970D01*
X156700004Y-80619995D01*
X156729366Y-80692429D01*
X156736645Y-80711177D01*
X156755710Y-80759046D01*
X156769715Y-80792396D01*
X156776041Y-80804914D01*
X156783025Y-80805850D01*
X156814413Y-80811261D01*
X156865787Y-80820606D01*
X156931802Y-80832869D01*
X157007113Y-80847032D01*
X157086375Y-80862080D01*
X157164243Y-80876995D01*
X157235370Y-80890761D01*
X157294412Y-80902362D01*
X157336022Y-80910780D01*
X157354857Y-80914999D01*
X157357980Y-80916189D01*
X157365591Y-80922605D01*
X157371254Y-80936265D01*
X157375251Y-80960799D01*
X157377866Y-80999838D01*
X157379384Y-81057013D01*
X157380086Y-81135954D01*
X157380257Y-81240292D01*
X157380257Y-81557599D01*
X157304057Y-81572639D01*
X157294840Y-81574442D01*
X157245891Y-81583780D01*
X157178205Y-81596469D01*
X157099478Y-81611073D01*
X157017400Y-81626155D01*
X156985078Y-81632222D01*
X156912855Y-81646981D01*
X156852666Y-81660937D01*
X156810040Y-81672752D01*
X156790510Y-81681087D01*
X156781660Y-81694705D01*
X156765548Y-81730738D01*
X156749065Y-81777372D01*
X156743263Y-81794834D01*
X156721906Y-81852158D01*
X156694359Y-81920001D01*
X156665107Y-81987155D01*
X156649463Y-82022230D01*
X156627174Y-82074622D01*
X156611857Y-82113858D01*
X156606162Y-82133363D01*
X156606478Y-82134836D01*
X156617281Y-82155529D01*
X156641638Y-82195465D01*
X156677081Y-82250772D01*
X156721136Y-82317581D01*
X156771332Y-82392020D01*
X156936501Y-82634423D01*
X156719503Y-82851783D01*
X156698516Y-82872699D01*
X156634342Y-82935305D01*
X156576990Y-82989295D01*
X156529820Y-83031626D01*
X156496192Y-83059257D01*
X156479467Y-83069143D01*
X156461303Y-83061621D01*
X156423265Y-83040027D01*
X156369726Y-83006951D01*
X156304884Y-82964991D01*
X156232940Y-82916743D01*
X156162275Y-82869091D01*
X156098526Y-82827128D01*
X156046513Y-82793965D01*
X156010279Y-82772178D01*
X155993867Y-82764343D01*
X155992905Y-82764414D01*
X155971103Y-82772138D01*
X155932440Y-82790123D01*
X155884612Y-82814813D01*
X155884110Y-82815084D01*
X155820587Y-82846899D01*
X155777060Y-82862442D01*
X155750052Y-82862485D01*
X155736090Y-82847800D01*
X155730180Y-82833344D01*
X155714229Y-82794631D01*
X155689660Y-82735116D01*
X155657779Y-82657965D01*
X155619893Y-82566341D01*
X155577310Y-82463407D01*
X155531337Y-82352326D01*
X155489667Y-82251272D01*
X155447268Y-82147580D01*
X155409756Y-82054919D01*
X155378388Y-81976442D01*
X155354425Y-81915300D01*
X155339123Y-81874643D01*
X155333743Y-81857625D01*
X155344018Y-81842019D01*
X155372563Y-81815962D01*
X155412971Y-81785687D01*
X155509979Y-81706484D01*
X155596793Y-81605275D01*
X155660322Y-81493916D01*
X155700177Y-81375693D01*
X155715965Y-81253895D01*
X155707296Y-81131810D01*
X155673778Y-81012725D01*
X155615021Y-80899929D01*
X155530632Y-80796711D01*
X155486631Y-80756513D01*
X155381211Y-80685438D01*
X155268410Y-80639101D01*
X155151525Y-80616399D01*
X155033853Y-80616228D01*
X154918690Y-80637487D01*
X154809335Y-80679070D01*
X154709083Y-80739876D01*
X154621233Y-80818801D01*
X154549080Y-80914741D01*
X154495922Y-81026595D01*
X154465057Y-81153257D01*
X154459392Y-81214307D01*
X154467185Y-81346576D01*
X154502284Y-81472066D01*
X154563649Y-81588559D01*
X154650243Y-81693839D01*
X154761029Y-81785687D01*
X154799931Y-81814730D01*
X154829104Y-81841072D01*
X154840257Y-81857600D01*
X154835810Y-81872009D01*
X154821378Y-81910615D01*
X154798173Y-81970001D01*
X154767452Y-82047015D01*
X154730474Y-82138503D01*
X154688496Y-82241316D01*
X154642778Y-82352302D01*
X154601178Y-82452872D01*
X154558222Y-82556747D01*
X154519829Y-82649619D01*
X154487305Y-82728325D01*
X154461958Y-82789699D01*
X154445095Y-82830579D01*
X154438025Y-82847800D01*
X154437943Y-82848004D01*
X154423798Y-82862545D01*
X154396659Y-82862379D01*
X154353023Y-82846727D01*
X154289388Y-82814813D01*
X154284379Y-82812126D01*
X154237125Y-82787950D01*
X154199811Y-82770837D01*
X154180133Y-82764343D01*
X154164005Y-82772018D01*
X154127959Y-82793671D01*
X154076092Y-82826728D01*
X154012445Y-82868610D01*
X153941060Y-82916743D01*
X153870724Y-82963931D01*
X153805670Y-83006067D01*
X153751820Y-83039378D01*
X153713374Y-83061269D01*
X153694534Y-83069143D01*
X153691325Y-83068143D01*
X153668954Y-83052384D01*
X153630733Y-83019833D01*
X153580021Y-82973533D01*
X153520181Y-82916526D01*
X153454571Y-82851858D01*
X153237648Y-82634572D01*
X153406601Y-82386053D01*
X153575553Y-82137533D01*
X153524183Y-82026395D01*
X153524031Y-82026066D01*
X153493183Y-81955218D01*
X153461661Y-81876323D01*
X153436266Y-81806400D01*
X153432423Y-81795122D01*
X153413047Y-81742767D01*
X153395574Y-81702083D01*
X153383388Y-81681087D01*
X153378426Y-81678122D01*
X153348634Y-81668175D01*
X153298047Y-81655305D01*
X153232194Y-81640853D01*
X153156600Y-81626155D01*
X153133957Y-81622010D01*
X153052038Y-81606916D01*
X152975600Y-81592699D01*
X152912337Y-81580795D01*
X152869943Y-81572639D01*
X152793743Y-81557599D01*
X152793743Y-81240292D01*
X152793760Y-81201276D01*
X152794082Y-81106092D01*
X152795033Y-81035055D01*
X152796896Y-80984534D01*
X152799955Y-80950898D01*
X152804494Y-80930518D01*
X152810795Y-80919762D01*
X152819143Y-80914999D01*
X152827224Y-80913070D01*
X152860172Y-80906245D01*
X152912736Y-80895822D01*
X152979569Y-80882818D01*
X153055328Y-80868249D01*
X153134665Y-80853133D01*
X153212237Y-80838485D01*
X153282698Y-80825323D01*
X153340702Y-80814663D01*
X153380904Y-80807521D01*
X153397959Y-80804914D01*
X153399112Y-80803341D01*
X153408385Y-80782919D01*
X153424432Y-80743845D01*
X153444635Y-80692429D01*
X153472672Y-80623153D01*
X153507186Y-80543090D01*
X153539538Y-80472528D01*
X153546952Y-80456689D01*
X153567755Y-80407093D01*
X153580219Y-80368838D01*
X153581863Y-80349156D01*
X153581015Y-80347762D01*
X153567548Y-80327220D01*
X153540850Y-80287316D01*
X153503539Y-80231940D01*
X153458234Y-80164977D01*
X153407552Y-80090317D01*
X153350445Y-80005492D01*
X153307607Y-79939600D01*
X153278460Y-79891278D01*
X153261317Y-79857533D01*
X153254495Y-79835372D01*
X153256306Y-79821802D01*
X153256915Y-79820784D01*
X153273297Y-79801010D01*
X153306695Y-79764975D01*
X153353671Y-79716251D01*
X153410786Y-79658412D01*
X153474603Y-79595027D01*
X153540802Y-79530705D01*
X153605648Y-79470247D01*
X153653299Y-79429455D01*
X153684990Y-79407284D01*
X153701958Y-79402689D01*
X153704175Y-79403721D01*
X153727524Y-79417637D01*
X153769912Y-79444830D01*
X153827369Y-79482689D01*
X153895923Y-79528603D01*
X153971601Y-79579960D01*
X154218298Y-79748426D01*
X154329706Y-79697862D01*
X154332943Y-79696397D01*
X154401343Y-79666765D01*
X154473907Y-79637293D01*
X154535457Y-79614158D01*
X154535729Y-79614062D01*
X154584595Y-79596167D01*
X154622212Y-79581053D01*
X154640457Y-79571984D01*
X154640752Y-79571655D01*
X154646946Y-79553082D01*
X154657139Y-79510845D01*
X154670348Y-79449496D01*
X154685590Y-79373589D01*
X154701881Y-79287675D01*
X154702449Y-79284596D01*
X154718713Y-79196928D01*
X154733608Y-79117541D01*
X154746171Y-79051501D01*
X154755438Y-79003879D01*
X154760444Y-78979743D01*
X154760764Y-78978405D01*
X154764060Y-78968073D01*
X154770738Y-78960306D01*
X154784462Y-78954740D01*
X154808895Y-78951007D01*
X154847702Y-78948742D01*
X154904546Y-78947578D01*
X154983090Y-78947148D01*
X155087000Y-78947086D01*
X155100056Y-78947086D01*
X155200933Y-78947171D01*
G37*
%TD*%
M02*
