M48
; DRILL file {KiCad 9.0.7-1.fc43app1} date 2026-04-13T13:39:28+0200
; FORMAT={-:-/ absolute / metric / decimal}
; #@! TF.CreationDate,2026-04-13T13:39:28+02:00
; #@! TF.GenerationSoftware,Kicad,Pcbnew,9.0.7-1.fc43app1
; #@! TF.FileFunction,Plated,1,2,PTH
FMAT,2
METRIC
; #@! TA.AperFunction,Plated,PTH,ViaDrill
T1C0.300
; #@! TA.AperFunction,Plated,PTH,ComponentDrill
T2C1.000
; #@! TA.AperFunction,Plated,PTH,ComponentDrill
T3C2.200
%
G90
G05
T1
X125.42Y-76.925
X125.42Y-87.145
X128.341Y-81.324
X128.366Y-82.797
X129.35Y-76.925
X129.35Y-87.145
X133.975Y-75.7
X136.262Y-78.5
X137.45Y-86.025
X137.675Y-81.025
X137.675Y-81.825
X137.675Y-82.625
X137.675Y-83.4
X137.675Y-84.2
X139.35Y-86.025
X140.228Y-92.474
X141.803Y-92.5
X142.387Y-88.775
X143.73Y-76.25
X143.73Y-79.85
X143.73Y-84.65
X145.435Y-71.875
X147.7Y-90.7
X148.675Y-92.775
X149.3Y-90.7
X149.4Y-74.33
X166.47Y-76.31
X166.47Y-87.11
T2
X147.975Y-69.335
X147.975Y-94.71
X150.515Y-69.335
X150.515Y-94.71
X153.055Y-69.335
X153.055Y-94.71
X155.595Y-69.335
X155.595Y-94.71
X158.135Y-69.335
X158.135Y-94.71
X160.675Y-69.335
X160.675Y-94.71
X163.215Y-69.335
X163.215Y-94.71
X165.755Y-69.335
X165.755Y-94.71
X170.505Y-74.364
X170.505Y-76.904
X170.505Y-79.444
T3
X125.75Y-69.97
X125.75Y-94.1
X170.2Y-69.97
X170.2Y-94.1
M30
